<svg width="86" height="69" viewBox="0 0 86 69" fill="none" xmlns="http://www.w3.org/2000/svg">
<g id="Vector" filter="url(#filter0_d_29314_7517)">
<path d="M57.3802 62.5695L30.7135 54.9445V1.43058L57.3802 9.05558V62.5695ZM61.8247 62.4028V8.72225L79.4774 1.65281C81.6719 0.777806 84.0469 2.38892 84.0469 4.75003V51.25C84.0469 52.6111 83.2135 53.8334 81.9497 54.3472L61.8247 62.3889V62.4028ZM6.1441 9.65281L26.2691 1.61114V55.2917L8.61632 62.3472C6.42188 63.2222 4.04688 61.6111 4.04688 59.25V12.75C4.04688 11.3889 4.88021 10.1667 6.1441 9.65281Z" fill="white"/>
<path d="M57.2428 63.0502L57.8802 63.2325V62.5695V9.05558V8.67851L57.5177 8.57485L30.851 0.949851L30.2135 0.767577V1.43058V54.9445V55.3215L30.5761 55.4252L57.2428 63.0502ZM61.6388 8.25809L61.3247 8.38388V8.72225V62.0503V62.3889V62.4028H61.8247H61.8302L62.0102 62.8532L82.1352 54.8116L82.138 54.8104C83.5875 54.2211 84.5469 52.8176 84.5469 51.25V4.75003C84.5469 2.03556 81.8152 0.182386 79.2922 1.18837L79.2915 1.18864L61.6388 8.25809ZM5.95857 9.1885L5.95856 9.18849L5.95577 9.18963C4.50629 9.77898 3.54688 11.1824 3.54688 12.75V59.25C3.54688 61.9645 6.27858 63.8177 8.80151 62.8117L8.80189 62.8115L26.4547 55.756L26.7691 55.6303V55.2917V1.61114V0.872907L26.0836 1.14684L5.95857 9.1885Z" stroke="#084F82"/>
</g>
<defs>
<filter id="filter0_d_29314_7517" x="0.046875" y="0.104492" width="85" height="68.791" filterUnits="userSpaceOnUse" color-interpolation-filters="sRGB">
<feFlood flood-opacity="0" result="BackgroundImageFix"/>
<feColorMatrix in="SourceAlpha" type="matrix" values="0 0 0 0 0 0 0 0 0 0 0 0 0 0 0 0 0 0 127 0" result="hardAlpha"/>
<feOffset dx="-3" dy="5"/>
<feComposite in2="hardAlpha" operator="out"/>
<feColorMatrix type="matrix" values="0 0 0 0 0.0470588 0 0 0 0 0.219608 0 0 0 0 0.345098 0 0 0 1 0"/>
<feBlend mode="normal" in2="BackgroundImageFix" result="effect1_dropShadow_29314_7517"/>
<feBlend mode="normal" in="SourceGraphic" in2="effect1_dropShadow_29314_7517" result="shape"/>
</filter>
</defs>
</svg>
