<svg width="100" height="100" viewBox="0 0 100 100" fill="none" xmlns="http://www.w3.org/2000/svg">
<g id="Icon100/image">
<circle id="Ellipse 778" cx="50" cy="50" r="50" fill="#E0E0E0"/>
<path id="Vector" d="M53.6642 20.2125L44.9888 35.2574H76.1191C73.8175 31.1651 70.586 27.6712 66.6854 25.0578C62.7848 22.4444 58.3244 20.7846 53.6642 20.2125ZM26.0491 31.9391L34.7105 46.9559L50.2756 20.0016C45.5843 19.9528 40.9472 21.0078 36.7388 23.0814C32.5304 25.1551 28.8686 28.1893 26.0491 31.9391ZM22.3793 61.7196H39.7301L24.165 34.7653C21.7798 38.8054 20.3757 43.3487 20.0656 48.03C19.7555 52.7114 20.5479 57.4002 22.3793 61.7196ZM46.2824 79.7875L55.014 64.7848H23.8978C26.2003 68.8697 29.4311 72.3559 33.3293 74.962C37.2275 77.5682 41.6838 79.2211 46.3386 79.7875H46.2824ZM73.9678 68.061L65.2924 53.0442L49.7272 79.9985C54.4204 80.0462 59.059 78.9908 63.2695 76.9173C67.48 74.8438 71.1445 71.8102 73.9678 68.061ZM77.6236 38.2805H60.2868L75.8379 65.2348C78.2294 61.1971 79.6372 56.6532 79.9474 51.9707C80.2576 47.2882 79.4615 42.5984 77.6236 38.2805Z" fill="#22689B"/>
</g>
</svg>
