<svg width="85" height="89" viewBox="0 0 85 89" fill="none" xmlns="http://www.w3.org/2000/svg">
<g id="Group 38428">
<g id="Group 38426" filter="url(#filter0_d_29314_7032)">
<path id="Vector" d="M66.653 26.5V26H66.153H55.4355H54.9355V26.5V55.0762V55.5762H55.4355H66.153H66.653V55.0762V26.5Z" fill="white" stroke="#084F82"/>
<path id="Vector_2" d="M54.5085 40.7937V40.2937H54.0085H43.291H42.791V40.7937V55.0763V55.5763H43.291H54.0085H54.5085V55.0763V40.7937Z" fill="white" stroke="#084F82"/>
<path id="Vector_3" d="M42.361 33.6528V33.1528H41.861H31.1436H30.6436V33.6528V55.0767V55.5767H31.1436H41.861H42.361V55.0767V33.6528Z" fill="white" stroke="#084F82"/>
<path id="Vector_4" d="M30.2155 47.9355V47.4355H29.7155H18.998H18.498V47.9355V55.0768V55.5768H18.998H29.7155H30.2155V55.0768V47.9355Z" fill="white" stroke="#084F82"/>
<path id="Vector_5" d="M68.0703 57.0479V56.5479H67.5703H17.5703H17.0703V57.0479V59.3286V59.8286H17.5703H67.5703H68.0703V59.3286V57.0479Z" fill="white" stroke="#084F82"/>
</g>
<g id="Group 38427" filter="url(#filter1_d_29314_7032)">
<g id="Ellipse 777">
<mask id="path-6-outside-1_29314_7032" maskUnits="userSpaceOnUse" x="3.57031" y="3.5" width="81" height="83" fill="black">
<rect fill="white" x="3.57031" y="3.5" width="81" height="83"/>
<path d="M48.8287 4.96244C55.9181 5.98566 62.609 8.87183 68.2183 13.3263C73.8276 17.7808 78.1543 23.644 80.7568 30.3174C83.3593 36.9907 84.1443 44.2351 83.0317 51.3111C81.919 58.387 78.9486 65.0409 74.4237 70.5935C69.8987 76.1461 63.9813 80.3985 57.2756 82.9165C50.57 85.4346 43.3162 86.128 36.2549 84.9261C29.1936 83.7242 22.5777 80.67 17.0827 76.0753C11.5876 71.4806 7.4103 65.51 4.97714 58.7731L7.78866 57.7577C10.0421 63.9971 13.911 69.5267 19.0002 73.7821C24.0894 78.0374 30.2167 80.8661 36.7565 81.9792C43.2963 83.0924 50.0144 82.4501 56.2248 80.1181C62.4353 77.786 67.9156 73.8477 72.1064 68.7051C76.2972 63.5626 79.0482 57.4001 80.0787 50.8467C81.1092 44.2934 80.3821 37.584 77.9718 31.4034C75.5616 25.2229 71.5543 19.7927 66.3593 15.6672C61.1643 11.5417 54.9675 8.8687 48.4017 7.92105L48.8287 4.96244Z"/>
</mask>
<path d="M48.8287 4.96244C55.9181 5.98566 62.609 8.87183 68.2183 13.3263C73.8276 17.7808 78.1543 23.644 80.7568 30.3174C83.3593 36.9907 84.1443 44.2351 83.0317 51.3111C81.919 58.387 78.9486 65.0409 74.4237 70.5935C69.8987 76.1461 63.9813 80.3985 57.2756 82.9165C50.57 85.4346 43.3162 86.128 36.2549 84.9261C29.1936 83.7242 22.5777 80.67 17.0827 76.0753C11.5876 71.4806 7.4103 65.51 4.97714 58.7731L7.78866 57.7577C10.0421 63.9971 13.911 69.5267 19.0002 73.7821C24.0894 78.0374 30.2167 80.8661 36.7565 81.9792C43.2963 83.0924 50.0144 82.4501 56.2248 80.1181C62.4353 77.786 67.9156 73.8477 72.1064 68.7051C76.2972 63.5626 79.0482 57.4001 80.0787 50.8467C81.1092 44.2934 80.3821 37.584 77.9718 31.4034C75.5616 25.2229 71.5543 19.7927 66.3593 15.6672C61.1643 11.5417 54.9675 8.8687 48.4017 7.92105L48.8287 4.96244Z" fill="white"/>
<path d="M48.8287 4.96244C55.9181 5.98566 62.609 8.87183 68.2183 13.3263C73.8276 17.7808 78.1543 23.644 80.7568 30.3174C83.3593 36.9907 84.1443 44.2351 83.0317 51.3111C81.919 58.387 78.9486 65.0409 74.4237 70.5935C69.8987 76.1461 63.9813 80.3985 57.2756 82.9165C50.57 85.4346 43.3162 86.128 36.2549 84.9261C29.1936 83.7242 22.5777 80.67 17.0827 76.0753C11.5876 71.4806 7.4103 65.51 4.97714 58.7731L7.78866 57.7577C10.0421 63.9971 13.911 69.5267 19.0002 73.7821C24.0894 78.0374 30.2167 80.8661 36.7565 81.9792C43.2963 83.0924 50.0144 82.4501 56.2248 80.1181C62.4353 77.786 67.9156 73.8477 72.1064 68.7051C76.2972 63.5626 79.0482 57.4001 80.0787 50.8467C81.1092 44.2934 80.3821 37.584 77.9718 31.4034C75.5616 25.2229 71.5543 19.7927 66.3593 15.6672C61.1643 11.5417 54.9675 8.8687 48.4017 7.92105L48.8287 4.96244Z" stroke="#084F82" stroke-width="2" mask="url(#path-6-outside-1_29314_7032)"/>
</g>
<path id="Polygon 1" d="M41.6945 4.50126L40.7748 4.78413L41.5349 5.37415L48.2912 10.6184L48.9415 11.1232L49.0896 10.3133L50.5082 2.55491L50.6562 1.74506L49.8693 1.98707L41.6945 4.50126Z" fill="white" stroke="#084F82"/>
</g>
</g>
<defs>
<filter id="filter0_d_29314_7032" x="12.5703" y="25.5" width="56" height="37.8286" filterUnits="userSpaceOnUse" color-interpolation-filters="sRGB">
<feFlood flood-opacity="0" result="BackgroundImageFix"/>
<feColorMatrix in="SourceAlpha" type="matrix" values="0 0 0 0 0 0 0 0 0 0 0 0 0 0 0 0 0 0 127 0" result="hardAlpha"/>
<feOffset dx="-4" dy="3"/>
<feComposite in2="hardAlpha" operator="out"/>
<feColorMatrix type="matrix" values="0 0 0 0 0.0313726 0 0 0 0 0.309804 0 0 0 0 0.509804 0 0 0 1 0"/>
<feBlend mode="normal" in2="BackgroundImageFix" result="effect1_dropShadow_29314_7032"/>
<feBlend mode="normal" in="SourceGraphic" in2="effect1_dropShadow_29314_7032" result="shape"/>
</filter>
<filter id="filter1_d_29314_7032" x="0.697266" y="1.02515" width="83.8262" height="87.4749" filterUnits="userSpaceOnUse" color-interpolation-filters="sRGB">
<feFlood flood-opacity="0" result="BackgroundImageFix"/>
<feColorMatrix in="SourceAlpha" type="matrix" values="0 0 0 0 0 0 0 0 0 0 0 0 0 0 0 0 0 0 127 0" result="hardAlpha"/>
<feOffset dx="-3" dy="2"/>
<feComposite in2="hardAlpha" operator="out"/>
<feColorMatrix type="matrix" values="0 0 0 0 0.0313726 0 0 0 0 0.309804 0 0 0 0 0.509804 0 0 0 1 0"/>
<feBlend mode="normal" in2="BackgroundImageFix" result="effect1_dropShadow_29314_7032"/>
<feBlend mode="normal" in="SourceGraphic" in2="effect1_dropShadow_29314_7032" result="shape"/>
</filter>
</defs>
</svg>
