<svg width="165" height="164" viewBox="0 0 165 164" fill="none" xmlns="http://www.w3.org/2000/svg">
<g id="Group 38437">
<g id="Group">
<path id="Vector" d="M82.6885 163C127.424 163 163.688 126.735 163.688 82C163.688 37.2649 127.424 1 82.6885 1C37.9534 1 1.68848 37.2649 1.68848 82C1.68848 126.735 37.9534 163 82.6885 163Z" fill="white" stroke="#084F82" stroke-width="2"/>
</g>
<g id="Group_2">
<g id="Group_3">
<g id="Clip path group">
<mask id="mask0_29465_4027" style="mask-type:luminance" maskUnits="userSpaceOnUse" x="2" y="2" width="161" height="160">
<g id="SVGID_2_">
<path id="Vector_2" d="M82.6885 161.38C126.871 161.38 162.688 125.701 162.688 81.6898C162.688 37.6783 126.871 2 82.6885 2C38.5057 2 2.68848 37.6783 2.68848 81.6898C2.68848 125.701 38.5057 161.38 82.6885 161.38Z" fill="white"/>
</g>
</mask>
<g mask="url(#mask0_29465_4027)">
<g id="Group_4">
<path id="Vector_3" d="M174.202 166.738L148.724 111.886V87.6108L149.849 85.6719C150.508 84.5473 150.508 83.1513 149.849 82.0267C149.248 80.9797 148.181 80.3398 146.999 80.3398H133.698H120.377C119.194 80.3398 118.128 80.9603 117.527 82.0267C116.868 83.1513 116.868 84.5473 117.527 85.6719L118.652 87.6108V111.906L93.1935 166.738C91.2739 170.888 91.5842 175.812 94.0272 179.613C96.1019 182.831 99.3205 184.693 102.869 184.693H133.698H164.526C168.075 184.693 171.293 182.851 173.368 179.613C175.811 175.812 176.121 170.888 174.202 166.738Z" fill="white"/>
<path id="Vector_4" d="M173.284 165.83L147.806 110.997V86.7025L148.931 84.7635C149.59 83.639 149.59 82.2429 148.931 81.099C148.33 80.052 147.263 79.4121 146.081 79.4121H132.78H119.479C118.296 79.4121 117.229 80.0326 116.628 81.099C115.969 82.2236 115.969 83.6196 116.628 84.7635L117.753 86.7025V110.997L92.2755 165.83C90.356 169.979 90.6662 174.904 93.1093 178.704C95.1839 181.923 98.4025 183.784 101.951 183.784H132.78H163.609C167.157 183.784 170.375 181.942 172.45 178.704C174.893 174.924 175.203 169.979 173.284 165.83Z" fill="#FEFEFE"/>
<path id="Vector_5" d="M172.376 164.912L146.898 110.079V85.7846L148.023 83.8457C148.682 82.7211 148.682 81.3251 148.023 80.2005C147.422 79.1535 146.355 78.5137 145.172 78.5137H131.871H118.57C117.388 78.5137 116.321 79.1341 115.72 80.2005C115.061 81.3251 115.061 82.7211 115.72 83.8457L116.845 85.7846V110.079L91.3673 164.912C89.4478 169.061 89.758 173.986 92.201 177.787C94.2757 181.005 97.4943 182.867 101.043 182.867H131.871H162.7C166.249 182.867 169.467 181.025 171.542 177.787C173.985 174.006 174.295 169.061 172.376 164.912Z" fill="#FCFCFC"/>
<path id="Vector_6" d="M171.467 164.023L145.99 109.171V84.8763L147.114 82.9374C147.774 81.8128 147.774 80.4168 147.114 79.2728C146.513 78.2258 145.447 77.5859 144.264 77.5859H130.963H117.662C116.479 77.5859 115.413 78.2064 114.812 79.2728C114.153 80.3974 114.153 81.7934 114.812 82.9374L115.937 84.8763V109.171L90.4591 164.023C88.5396 168.172 88.8498 173.097 91.2928 176.898C93.3675 180.116 96.5861 181.978 100.134 181.978H130.963H161.792C165.34 181.978 168.559 180.136 170.634 176.898C173.077 173.097 173.387 168.153 171.467 164.023Z" fill="#FBFBFB"/>
<path id="Vector_7" d="M170.549 163.115L145.072 108.263V83.9682L146.196 82.0293C146.856 80.9047 146.856 79.5087 146.196 78.3841C145.595 77.3371 144.529 76.6973 143.346 76.6973H130.045H116.744C115.562 76.6973 114.495 77.3177 113.894 78.3841C113.235 79.5087 113.235 80.9047 113.894 82.0293L115.019 83.9682V108.263L89.5411 163.115C87.6216 167.264 87.9318 172.189 90.3749 175.99C92.4495 179.208 95.6681 181.07 99.2164 181.07H130.045H160.874C164.422 181.07 167.66 179.228 169.716 175.99C172.159 172.189 172.469 167.264 170.549 163.115Z" fill="#F9F9F9"/>
<path id="Vector_8" d="M169.641 162.197L144.164 107.345V83.0697L145.288 81.1307C145.948 80.0062 145.948 78.6101 145.288 77.4662C144.687 76.4191 143.621 75.7793 142.438 75.7793H129.137H115.836C114.653 75.7793 113.587 76.3998 112.986 77.4662C112.327 78.5907 112.327 79.9868 112.986 81.1307L114.11 83.0697V107.364L88.6329 162.197C86.7134 166.346 87.0236 171.271 89.4667 175.072C91.5413 178.29 94.7599 180.152 98.3082 180.152H129.137H159.966C163.514 180.152 166.752 178.31 168.807 175.072C171.25 171.271 171.561 166.346 169.641 162.197Z" fill="#F8F8F8"/>
<path id="Vector_9" d="M168.733 161.289L143.256 106.456V82.1616L144.38 80.2227C145.039 79.0981 145.039 77.7021 144.38 76.5775C143.779 75.5305 142.693 74.8906 141.53 74.8906H128.229H114.928C113.745 74.8906 112.679 75.5111 112.078 76.5775C111.418 77.7021 111.418 79.0981 112.078 80.2227L113.202 82.1616V106.456L87.7247 161.289C85.8052 165.438 86.1154 170.363 88.5585 174.164C90.6331 177.382 93.8517 179.244 97.4 179.244H128.229H159.058C162.606 179.244 165.844 177.402 167.899 174.164C170.342 170.383 170.653 165.438 168.733 161.289Z" fill="#F7F7F7"/>
<path id="Vector_10" d="M167.815 160.381L142.338 105.548V81.2532L143.462 79.3143C144.121 78.1897 144.121 76.7937 143.462 75.6498C142.861 74.6027 141.775 73.9629 140.612 73.9629H127.311H114.01C112.827 73.9629 111.761 74.5833 111.16 75.6498C110.5 76.7743 110.5 78.1704 111.16 79.3143L112.284 81.2532V105.548L86.8068 160.381C84.8872 164.53 85.1975 169.455 87.6405 173.255C89.7151 176.474 92.9338 178.335 96.482 178.335H127.311H158.14C161.688 178.335 164.926 176.493 166.981 173.255C169.424 169.474 169.735 164.53 167.815 160.381Z" fill="#F5F5F5"/>
<path id="Vector_11" d="M166.907 159.463L141.429 104.63V80.3354L142.554 78.3965C143.213 77.2719 143.213 75.8759 142.554 74.7513C141.953 73.7043 140.867 73.0645 139.704 73.0645H126.403H113.102C111.919 73.0645 110.853 73.6849 110.251 74.7513C109.592 75.8759 109.592 77.2719 110.251 78.3965L111.376 80.3354V104.63L85.8986 159.463C83.979 163.612 84.2893 168.537 86.7323 172.337C88.8069 175.556 92.0256 177.417 95.5738 177.417H126.403H157.232C160.78 177.417 164.018 175.575 166.073 172.337C168.516 168.556 168.826 163.612 166.907 159.463Z" fill="#F4F4F4"/>
<path id="Vector_12" d="M165.999 158.574L140.521 103.722V79.4271L141.646 77.4882C142.305 76.3636 142.305 74.9676 141.646 73.8236C141.045 72.7766 139.978 72.1367 138.795 72.1367H125.494H112.193C111.011 72.1367 109.944 72.7572 109.343 73.8236C108.684 74.9482 108.684 76.3442 109.343 77.4882L110.468 79.4271V103.722L84.9904 158.574C83.0708 162.723 83.3811 167.648 85.8241 171.448C87.8987 174.667 91.1174 176.528 94.6656 176.528H125.494H156.323C159.872 176.528 163.11 174.686 165.165 171.448C167.608 167.648 167.918 162.723 165.999 158.574Z" fill="#F3F3F3"/>
<path id="Vector_13" d="M165.09 157.666L139.613 102.814V78.5385L140.738 76.5996C141.397 75.475 141.397 74.079 140.738 72.9544C140.136 71.9074 139.07 71.2676 137.887 71.2676H124.586H111.285C110.103 71.2676 109.036 71.888 108.435 72.9544C107.776 74.079 107.776 75.475 108.435 76.5996L109.56 78.5385V102.833L84.0822 157.666C82.1626 161.815 82.4728 166.74 84.9159 170.54C86.9905 173.759 90.2092 175.62 93.7574 175.62H124.586H155.415C158.963 175.62 162.182 173.778 164.257 170.54C166.7 166.74 167.01 161.815 165.09 157.666Z" fill="#F1F1F1"/>
<path id="Vector_14" d="M164.172 156.748L138.695 101.915V77.6204L139.82 75.6815C140.479 74.5569 140.479 73.1609 139.82 72.0169C139.218 70.9699 138.152 70.3301 136.969 70.3301H123.668H110.367C109.185 70.3301 108.118 70.9505 107.517 72.0169C106.858 73.1415 106.858 74.5375 107.517 75.6815L108.642 77.6204V101.915L83.1642 156.748C81.2447 160.897 81.5549 165.822 83.9979 169.622C86.0726 172.841 89.2912 174.702 92.8394 174.702H123.668H154.497C158.045 174.702 161.264 172.86 163.339 169.622C165.782 165.841 166.092 160.897 164.172 156.748Z" fill="#F0F0F0"/>
<path id="Vector_15" d="M163.264 155.84L137.787 101.007V76.7122L138.911 74.7733C139.571 73.6487 139.571 72.2527 138.911 71.1087C138.31 70.0617 137.244 69.4219 136.061 69.4219H122.76H109.459C108.276 69.4219 107.21 70.0423 106.609 71.1087C105.95 72.2333 105.95 73.6293 106.609 74.7733L107.733 76.7122V101.007L82.256 155.84C80.3364 159.989 80.6467 164.914 83.0897 168.714C85.1644 171.933 88.383 173.794 91.9312 173.794H122.76H153.589C157.137 173.794 160.356 171.952 162.43 168.714C164.874 164.933 165.184 159.989 163.264 155.84Z" fill="#EEEEEE"/>
<path id="Vector_16" d="M162.356 154.951L136.879 100.099V75.8042L138.003 73.8652C138.662 72.7407 138.662 71.3446 138.003 70.2201C137.402 69.173 136.336 68.5332 135.153 68.5332H121.852H108.551C107.368 68.5332 106.302 69.1537 105.701 70.2201C105.041 71.3446 105.041 72.7407 105.701 73.8652L106.825 75.8042V100.099L81.3478 154.951C79.4282 159.1 79.7385 164.025 82.1815 167.825C84.2562 171.044 87.4748 172.905 91.023 172.905H121.852H152.681C156.229 172.905 159.467 171.063 161.522 167.825C163.965 164.025 164.276 159.081 162.356 154.951Z" fill="#EDEDED"/>
<path id="Vector_17" d="M161.438 154.033L135.961 99.1808V74.8861L137.085 72.9471C137.744 71.8226 137.744 70.4265 137.085 69.2826C136.484 68.2355 135.418 67.5957 134.235 67.5957H120.934H107.633C106.45 67.5957 105.384 68.2162 104.783 69.2826C104.123 70.4071 104.123 71.8032 104.783 72.9471L105.907 74.8861V99.1808L80.4298 154.033C78.5103 158.182 78.8205 163.107 81.2635 166.907C83.3382 170.126 86.5568 171.987 90.105 171.987H120.934H151.763C155.311 171.987 158.549 170.145 160.604 166.907C163.047 163.107 163.358 158.182 161.438 154.033Z" fill="#ECECEC"/>
<path id="Vector_18" d="M160.53 153.125L135.052 98.2729V73.9975L136.177 72.0586C136.836 70.934 136.836 69.538 136.177 68.4134C135.576 67.3664 134.509 66.7266 133.327 66.7266H120.026H106.725C105.542 66.7266 104.476 67.347 103.874 68.4134C103.215 69.538 103.215 70.934 103.874 72.0586L104.999 73.9975V98.2922L79.5216 153.125C77.6021 157.274 77.9123 162.199 80.3553 165.999C82.43 169.218 85.6486 171.079 89.1968 171.079H120.026H150.855C154.403 171.079 157.641 169.237 159.696 165.999C162.139 162.199 162.449 157.274 160.53 153.125Z" fill="#EAEAEA"/>
<path id="Vector_19" d="M159.622 152.217L134.144 97.3839V73.0892L135.269 71.1503C135.928 70.0257 135.928 68.6297 135.269 67.4857C134.668 66.4387 133.582 65.7988 132.419 65.7988H119.118H105.817C104.634 65.7988 103.567 66.4193 102.966 67.4857C102.307 68.6103 102.307 70.0063 102.966 71.1503L104.091 73.0892V97.3839L78.6134 152.217C76.6939 156.366 77.0041 161.291 79.4471 165.091C81.5218 168.31 84.7404 170.171 88.2886 170.171H119.118H149.946C153.495 170.171 156.733 168.329 158.788 165.091C161.231 161.31 161.541 156.366 159.622 152.217Z" fill="#E9E9E9"/>
<path id="Vector_20" d="M158.704 151.299L133.226 96.4661V72.1714L134.351 70.2324C135.01 69.1079 135.01 67.7118 134.351 66.5873C133.75 65.5402 132.664 64.9004 131.501 64.9004H118.2H104.899C103.716 64.9004 102.649 65.5209 102.048 66.5873C101.389 67.7118 101.389 69.1079 102.048 70.2324L103.173 72.1714V96.4661L77.6954 151.299C75.7759 155.448 76.0861 160.373 78.5292 164.173C80.6038 167.392 83.8224 169.253 87.3707 169.253H118.2H149.028C152.577 169.253 155.815 167.411 157.87 164.173C160.313 160.392 160.623 155.448 158.704 151.299Z" fill="#E8E8E8"/>
<path id="Vector_21" d="M157.795 150.41L132.318 95.5577V71.263L133.443 69.3241C134.102 68.1995 134.102 66.8035 133.443 65.6595C132.842 64.6125 131.756 63.9727 130.592 63.9727H117.291H103.99C102.808 63.9727 101.741 64.5931 101.14 65.6595C100.481 66.7841 100.481 68.1801 101.14 69.3241L102.265 71.263V95.5577L76.7872 150.41C74.8677 154.559 75.1779 159.484 77.621 163.284C79.6956 166.503 82.9142 168.364 86.4625 168.364H117.291H148.12C151.668 168.364 154.906 166.522 156.962 163.284C159.405 159.484 159.715 154.54 157.795 150.41Z" fill="#E6E6E6"/>
<path id="Vector_22" d="M156.887 149.502L131.41 94.6497V70.3549L132.534 68.416C133.194 67.2914 133.194 65.8954 132.534 64.7708C131.933 63.7238 130.848 63.084 129.684 63.084H116.383H103.082C101.899 63.084 100.833 63.7044 100.232 64.7708C99.5727 65.8954 99.5727 67.2914 100.232 68.416L101.356 70.3549V94.6497L75.879 149.502C73.9595 153.651 74.2697 158.576 76.7128 162.376C78.7874 165.595 82.006 167.456 85.5543 167.456H116.383H147.212C150.76 167.456 153.979 165.614 156.054 162.376C158.497 158.576 158.807 153.651 156.887 149.502Z" fill="#E5E5E5"/>
<path id="Vector_23" d="M155.969 148.584L130.492 93.7317V69.4564L131.616 67.5174C132.276 66.3929 132.276 64.9968 131.616 63.8529C131.015 62.8059 129.949 62.166 128.766 62.166H115.465H102.164C100.981 62.166 99.915 62.7865 99.3139 63.8529C98.6547 64.9775 98.6547 66.3735 99.3139 67.5174L100.439 69.4564V93.7511L74.9611 148.584C73.0415 152.733 73.3518 157.658 75.7948 161.458C77.8694 164.677 81.0881 166.538 84.6363 166.538H115.465H146.294C149.842 166.538 153.061 164.696 155.136 161.458C157.579 157.658 157.889 152.733 155.969 148.584Z" fill="#E3E3E3"/>
<path id="Vector_24" d="M155.061 147.676L129.584 92.843V68.5483L130.708 66.6094C131.367 65.4848 131.367 64.0888 130.708 62.9642C130.107 61.9172 129.041 61.2773 127.858 61.2773H114.557H101.256C100.073 61.2773 99.0068 61.8978 98.4057 62.9642C97.7465 64.0888 97.7465 65.4848 98.4057 66.6094L99.5303 68.5483V92.843L74.0529 147.676C72.1333 151.825 72.4436 156.75 74.8866 160.55C76.9612 163.769 80.1799 165.63 83.7281 165.63H114.557H145.386C148.934 165.63 152.153 163.788 154.227 160.55C156.67 156.769 156.981 151.825 155.061 147.676Z" fill="#E2E2E2"/>
<path id="Vector_25" d="M154.153 146.767L128.675 91.9347V67.64L129.8 65.701C130.459 64.5765 130.459 63.1804 129.8 62.0365C129.199 60.9895 128.133 60.3496 126.95 60.3496H113.649H100.348C99.165 60.3496 98.0986 60.9701 97.4975 62.0365C96.8383 63.161 96.8383 64.5571 97.4975 65.701L98.6221 67.64V91.9347L73.1447 146.767C71.2251 150.917 71.5353 155.842 73.9784 159.642C76.053 162.861 79.2717 164.722 82.8199 164.722H113.649H144.478C148.026 164.722 151.245 162.88 153.319 159.642C155.762 155.861 156.092 150.917 154.153 146.767Z" fill="#E1E1E1"/>
<path id="Vector_26" d="M153.235 145.859L127.757 91.0266V66.7319L128.882 64.793C129.541 63.6684 129.541 62.2724 128.882 61.1478C128.281 60.1008 127.215 59.4609 126.032 59.4609H112.731H99.4298C98.247 59.4609 97.1806 60.0814 96.5796 61.1478C95.9203 62.2724 95.9203 63.6684 96.5796 64.793L97.7041 66.7319V91.0266L72.2267 145.859C70.3072 150.009 70.6174 154.934 73.0604 158.734C75.1351 161.952 78.3537 163.814 81.9019 163.814H112.731H143.56C147.108 163.814 150.327 161.972 152.401 158.734C154.844 154.953 155.174 150.009 153.235 145.859Z" fill="#DFDFDF"/>
<path id="Vector_27" d="M152.327 144.961L126.849 90.1085V65.8138L127.974 63.8749C128.633 62.7503 128.633 61.3543 127.974 60.2103C127.373 59.1633 126.306 58.5234 125.124 58.5234H111.823H98.5216C97.3388 58.5234 96.2724 59.1439 95.6714 60.2103C95.0121 61.3349 95.0121 62.7309 95.6714 63.8749L96.7959 65.8138V90.1085L71.3185 144.961C69.3989 149.11 69.7092 154.035 72.1522 157.835C74.2269 161.054 77.4455 162.915 80.9937 162.915H111.823H142.651C146.2 162.915 149.438 161.073 151.493 157.835C153.936 154.035 154.266 149.11 152.327 144.961Z" fill="#DEDEDE"/>
<path id="Vector_28" d="M151.419 144.053L125.941 89.2006V64.9253L127.066 62.9863C127.725 61.8618 127.725 60.4657 127.066 59.3412C126.465 58.2941 125.398 57.6543 124.215 57.6543H110.914H97.6134C96.4306 57.6543 95.3642 58.2748 94.7632 59.3412C94.1039 60.4657 94.1039 61.8618 94.7632 62.9863L95.8877 64.9253V89.22L70.4103 144.053C68.4907 148.202 68.801 153.127 71.244 156.927C73.3187 160.146 76.5373 162.007 80.0855 162.007H110.914H141.743C145.292 162.007 148.53 160.165 150.585 156.927C153.028 153.127 153.357 148.202 151.419 144.053Z" fill="#DDDDDD"/>
<path id="Vector_29" d="M150.51 143.145L125.033 88.3118V64.0171L126.157 62.0781C126.817 60.9536 126.817 59.5575 126.157 58.433C125.556 57.3859 124.49 56.7461 123.307 56.7461H110.006H96.7052C95.5224 56.7461 94.456 57.3666 93.855 58.433C93.1957 59.5575 93.1957 60.9536 93.855 62.0781L94.9795 64.0171V88.3118L69.5021 143.145C67.5825 147.294 67.8928 152.219 70.3358 156.019C72.4105 159.238 75.6291 161.099 79.1773 161.099H110.006H140.835C144.383 161.099 147.621 159.257 149.677 156.019C152.12 152.238 152.449 147.294 150.51 143.145Z" fill="#DBDBDB"/>
<path id="Vector_30" d="M149.592 142.226L124.115 87.3937V63.0989L125.239 61.16C125.899 60.0354 125.899 58.6394 125.239 57.4955C124.638 56.4484 123.553 55.8086 122.389 55.8086H109.088H95.7872C94.6045 55.8086 93.5381 56.4291 92.937 57.4955C92.2778 58.62 92.2778 60.0161 92.937 61.16L94.0616 63.0989V87.3937L68.5841 142.226C66.6646 146.376 66.9748 151.301 69.4178 155.101C71.4925 158.32 74.7111 160.181 78.2593 160.181H109.088H139.917C143.465 160.181 146.703 158.339 148.759 155.101C151.202 151.32 151.531 146.376 149.592 142.226Z" fill="#DADADA"/>
<path id="Vector_31" d="M148.684 141.338L123.207 86.4856V62.1909L124.331 60.252C124.99 59.1274 124.99 57.7314 124.331 56.6068C123.73 55.5598 122.644 54.9199 121.481 54.9199H108.18H94.879C93.6963 54.9199 92.6299 55.5404 92.0288 56.6068C91.3696 57.7314 91.3696 59.1274 92.0288 60.252L93.1534 62.1909V86.4856L67.6759 141.338C65.7564 145.487 66.0666 150.412 68.5096 154.212C70.5843 157.431 73.8029 159.292 77.3511 159.292H108.18H139.009C142.557 159.292 145.795 157.45 147.85 154.212C150.293 150.412 150.623 145.468 148.684 141.338Z" fill="#D9D9D9"/>
<path id="Vector_32" d="M147.766 140.429L122.289 85.5773V61.2825L123.413 59.3436C124.073 58.219 124.073 56.823 123.413 55.6791C122.812 54.632 121.726 53.9922 120.563 53.9922H107.262H93.961C92.7783 53.9922 91.7119 54.6126 91.1108 55.6791C90.4516 56.8036 90.4516 58.1997 91.1108 59.3436L92.2354 61.2825V85.5773L66.7579 140.429C64.8384 144.579 65.1486 149.504 67.5917 153.304C69.6663 156.522 72.8849 158.384 76.4332 158.384H107.262H138.091C141.639 158.384 144.877 156.542 146.932 153.304C149.375 149.504 149.705 144.579 147.766 140.429Z" fill="#D7D7D7"/>
<path id="Vector_33" d="M146.858 139.512L121.381 84.6596V60.3842L122.505 58.4453C123.164 57.3207 123.164 55.9247 122.505 54.8001C121.904 53.7531 120.838 53.1133 119.655 53.1133H106.354H93.0528C91.8701 53.1133 90.8037 53.7337 90.2026 54.8001C89.5434 55.9247 89.5434 57.3207 90.2026 58.4453L91.3272 60.3842V84.679L65.8497 139.512C63.9302 143.661 64.2404 148.586 66.6835 152.386C68.7581 155.605 71.9767 157.466 75.525 157.466H106.354H137.183C140.731 157.466 143.95 155.624 146.024 152.386C148.467 148.586 148.797 143.661 146.858 139.512Z" fill="#D6D6D6"/>
<path id="Vector_34" d="M145.95 138.603L120.472 83.7706V59.4759L121.597 57.537C122.256 56.4124 122.256 55.0164 121.597 53.8724C120.996 52.8254 119.929 52.1855 118.747 52.1855H105.446H92.1446C90.9619 52.1855 89.8955 52.806 89.2944 53.8724C88.6352 54.997 88.6352 56.393 89.2944 57.537L90.419 59.4759V83.7706L64.9415 138.603C63.022 142.753 63.3322 147.678 65.7753 151.478C67.8499 154.696 71.0685 156.558 74.6168 156.558H105.446H136.275C139.823 156.558 143.041 154.716 145.116 151.478C147.559 147.697 147.889 142.753 145.95 138.603Z" fill="#D4D4D4"/>
<path id="Vector_35" d="M145.032 137.695L119.554 82.8626V58.5678L120.679 56.6289C121.338 55.5043 121.338 54.1083 120.679 52.9837C120.078 51.9367 119.011 51.2969 117.829 51.2969H104.528H91.2267C90.0439 51.2969 88.9775 51.9173 88.3764 52.9837C87.7172 54.1083 87.7172 55.5043 88.3764 56.6289L89.501 58.5678V82.8626L64.0236 137.695C62.104 141.845 62.4143 146.769 64.8573 150.57C66.9319 153.788 70.1506 155.65 73.6988 155.65H104.528H135.357C138.905 155.65 142.123 153.808 144.198 150.57C146.641 146.789 146.971 141.845 145.032 137.695Z" fill="#D3D3D3"/>
<path id="Vector_36" d="M144.124 136.797L118.646 81.9444V57.6497L119.771 55.7108C120.43 54.5862 120.43 53.1902 119.771 52.0462C119.17 50.9992 118.103 50.3594 116.92 50.3594H103.619H90.3185C89.1357 50.3594 88.0693 50.9798 87.4682 52.0462C86.809 53.1708 86.809 54.5668 87.4682 55.7108L88.5928 57.6497V81.9444L63.1154 136.797C61.1958 140.946 61.5061 145.871 63.9491 149.671C66.0237 152.89 69.2424 154.751 72.7906 154.751H103.619H134.448C137.997 154.751 141.215 152.909 143.29 149.671C145.733 145.871 146.063 140.927 144.124 136.797Z" fill="#D2D2D2"/>
<path id="Vector_37" d="M143.215 135.889L117.738 81.0364V56.7417L118.863 54.8027C119.522 53.6782 119.522 52.2821 118.863 51.1576C118.261 50.1105 117.195 49.4707 116.012 49.4707H102.711H89.4103C88.2275 49.4707 87.1611 50.0912 86.56 51.1576C85.9008 52.2821 85.9008 53.6782 86.56 54.8027L87.6846 56.7417V81.0364L62.2072 135.889C60.2876 140.038 60.5978 144.963 63.0409 148.763C65.1155 151.982 68.3342 153.843 71.8824 153.843H102.711H133.54C137.088 153.843 140.326 152.001 142.382 148.763C144.825 144.963 145.154 140.038 143.215 135.889Z" fill="#D0D0D0"/>
<path id="Vector_38" d="M142.307 134.98L116.83 80.1282V55.8529L117.954 53.9139C118.614 52.7894 118.614 51.3933 117.954 50.2494C117.353 49.2023 116.287 48.5625 115.104 48.5625H101.803H88.5021C87.3193 48.5625 86.2529 49.183 85.6518 50.2494C84.9926 51.3739 84.9926 52.77 85.6518 53.9139L86.7764 55.8529V80.1476L61.299 134.98C59.3794 139.13 59.6896 144.054 62.1327 147.855C64.2073 151.073 67.426 152.935 70.9742 152.935H101.803H132.632C136.18 152.935 139.418 151.093 141.473 147.855C143.917 144.054 144.246 139.13 142.307 134.98Z" fill="#CFCFCF"/>
<path id="Vector_39" d="M141.389 134.063L115.912 79.2297V54.935L117.036 52.9961C117.696 51.8715 117.696 50.4755 117.036 49.3509C116.435 48.3039 115.349 47.6641 114.186 47.6641H100.885H87.5841C86.4013 47.6641 85.3349 48.2845 84.7339 49.3509C84.0746 50.4755 84.0746 51.8715 84.7339 52.9961L85.8584 54.935V79.2297L60.381 134.063C58.4614 138.212 58.7717 143.137 61.2147 146.937C63.2894 150.156 66.508 152.017 70.0562 152.017H100.885H131.714C135.262 152.017 138.5 150.175 140.555 146.937C142.999 143.156 143.328 138.212 141.389 134.063Z" fill="#CECECE"/>
<path id="Vector_40" d="M140.481 133.154L115.004 78.3214V54.0267L116.128 52.0878C116.787 50.9632 116.787 49.5672 116.128 48.4232C115.527 47.3762 114.441 46.7363 113.278 46.7363H99.9769H86.6759C85.4931 46.7363 84.4267 47.3568 83.8257 48.4232C83.1664 49.5478 83.1664 50.9438 83.8257 52.0878L84.9502 54.0267V78.3214L59.4728 133.154C57.5532 137.303 57.8635 142.228 60.3065 146.029C62.3812 149.247 65.5998 151.109 69.148 151.109H99.9769H130.806C134.354 151.109 137.592 149.267 139.647 146.029C142.09 142.248 142.42 137.303 140.481 133.154Z" fill="#CCCCCC"/>
<path id="Vector_41" d="M139.573 132.246L114.095 77.4133V53.1186L115.22 51.1797C115.879 50.0551 115.879 48.6591 115.22 47.5345C114.619 46.4875 113.533 45.8477 112.37 45.8477H99.0687H85.7677C84.5849 45.8477 83.5185 46.4681 82.9175 47.5345C82.2582 48.6591 82.2582 50.0551 82.9175 51.1797L84.042 53.1186V77.4133L58.5646 132.246C56.645 136.395 56.9553 141.32 59.3983 145.121C61.473 148.339 64.6916 150.201 68.2398 150.201H99.0687H129.898C133.446 150.201 136.684 148.359 138.739 145.121C141.182 141.34 141.512 136.395 139.573 132.246Z" fill="#CBCBCB"/>
<path id="Vector_42" d="M138.665 131.348L113.207 76.4954V52.2007L114.331 50.2617C114.99 49.1372 114.99 47.7411 114.331 46.6166C113.73 45.5695 112.644 44.9297 111.481 44.9297H98.1799H84.8789C83.6961 44.9297 82.6297 45.5501 82.0286 46.6166C81.3694 47.7411 81.3694 49.1372 82.0286 50.2617L83.1532 52.2007V76.4954L57.6564 131.348C55.7368 135.497 56.0471 140.422 58.4901 144.222C60.5648 147.441 63.7834 149.302 67.3316 149.302H98.1605H128.989C132.538 149.302 135.776 147.46 137.831 144.222C140.274 140.422 140.604 135.497 138.665 131.348Z" fill="#C9C9C9"/>
<path id="Vector_43" d="M137.766 130.439L112.269 75.5872V51.3118L113.394 49.3729C114.053 48.2483 114.053 46.8523 113.394 45.7083C112.793 44.6613 111.707 44.0215 110.544 44.0215H97.2425H83.9415C82.7588 44.0215 81.6924 44.6419 81.0913 45.7083C80.4321 46.8329 80.4321 48.229 81.0913 49.3729L82.2159 51.3118V75.6066L56.7384 130.439C54.8189 134.589 55.1291 139.513 57.5721 143.314C59.6468 146.532 62.8654 148.394 66.4136 148.394H97.2425H128.071C131.62 148.394 134.858 146.552 136.913 143.314C139.356 139.513 139.686 134.589 137.766 130.439Z" fill="#C8C8C8"/>
<path id="Vector_44" d="M136.858 129.531L111.361 74.6985V50.4038L112.486 48.4649C113.145 47.3403 113.145 45.9443 112.486 44.8197C111.884 43.7727 110.818 43.1328 109.635 43.1328H96.3343H83.0333C81.8506 43.1328 80.7842 43.7533 80.1831 44.8197C79.5239 45.9443 79.5239 47.3403 80.1831 48.4649L81.3077 50.4038V74.6985L55.8302 129.531C53.9107 133.681 54.2209 138.605 56.6639 142.406C58.7386 145.624 61.9572 147.486 65.5054 147.486H96.3343H127.163C130.711 147.486 133.93 145.644 136.005 142.406C138.448 138.625 138.777 133.681 136.858 129.531Z" fill="#C7C7C7"/>
<path id="Vector_45" d="M135.94 128.623L110.443 73.7901V49.4954L111.568 47.5565C112.227 46.4319 112.227 45.0359 111.568 43.8919C110.967 42.8449 109.9 42.2051 108.718 42.2051H95.4165H82.1155C80.9327 42.2051 79.8663 42.8255 79.2653 43.8919C78.606 45.0165 78.606 46.4125 79.2653 47.5565L80.3898 49.4954V73.7901L54.9318 128.623C53.0122 132.772 53.3225 137.697 55.7655 141.497C57.8401 144.716 61.0588 146.577 64.607 146.577H95.4359H126.265C129.813 146.577 133.032 144.735 135.106 141.497C137.53 137.716 137.86 132.772 135.94 128.623Z" fill="#C5C5C5"/>
<path id="Vector_46" d="M135.032 127.705L109.554 72.8723V48.5776L110.679 46.6387C111.338 45.5141 111.338 44.1181 110.679 42.9935C110.078 41.9465 109.011 41.3066 107.829 41.3066H94.5277H81.2073C80.0245 41.3066 78.9581 41.9271 78.3571 42.9935C77.6978 44.1181 77.6978 45.5141 78.3571 46.6387L79.4816 48.5776V72.8723L54.0236 127.705C52.104 131.854 52.4143 136.779 54.8573 140.58C56.9319 143.798 60.1506 145.66 63.6988 145.66H94.5277H125.357C128.905 145.66 132.123 143.818 134.198 140.58C136.622 136.799 136.951 131.854 135.032 127.705Z" fill="#C4C4C4"/>
<path id="Vector_47" d="M134.124 126.816L108.646 71.964V47.6693L109.771 45.7303C110.43 44.6058 110.43 43.2097 109.771 42.0658C109.17 41.0187 108.103 40.3789 106.92 40.3789H93.6195H80.3185C79.1357 40.3789 78.0693 40.9994 77.4682 42.0658C76.809 43.1903 76.809 44.5864 77.4682 45.7303L78.5928 47.6693V71.964L53.1154 126.816C51.1958 130.965 51.5061 135.89 53.9491 139.691C56.0237 142.909 59.2424 144.771 62.7906 144.771H93.6195H124.448C127.997 144.771 131.235 142.929 133.29 139.691C135.733 135.89 136.043 130.965 134.124 126.816Z" fill="#C3C3C3"/>
<path id="Vector_48" d="M133.215 125.908L107.738 71.0561V46.7807L108.863 44.8418C109.522 43.7172 109.522 42.3212 108.863 41.1966C108.261 40.1496 107.195 39.5098 106.012 39.5098H92.7113H79.4103C78.2275 39.5098 77.1611 40.1302 76.56 41.1966C75.9008 42.3212 75.9008 43.7172 76.56 44.8418L77.6846 46.7807V71.0754L52.2072 125.908C50.2876 130.058 50.5978 134.982 53.0409 138.783C55.1155 142.001 58.3342 143.863 61.8824 143.863H92.7113H123.54C127.088 143.863 130.326 142.021 132.382 138.783C134.825 134.982 135.135 130.058 133.215 125.908Z" fill="#C1C1C1"/>
<path id="Vector_49" d="M132.297 124.99L106.82 70.1573V45.8626L107.945 43.9237C108.604 42.7991 108.604 41.4031 107.945 40.2591C107.343 39.2121 106.277 38.5723 105.094 38.5723H91.7933H78.4923C77.3095 38.5723 76.2431 39.1927 75.6421 40.2591C74.9828 41.3837 74.9828 42.7797 75.6421 43.9237L76.7666 45.8626V70.1573L51.2892 124.99C49.3697 129.139 49.6799 134.064 52.1229 137.865C54.1976 141.083 57.4162 142.945 60.9644 142.945H91.7933H122.622C126.17 142.945 129.408 141.103 131.464 137.865C133.907 134.084 134.217 129.139 132.297 124.99Z" fill="#C0C0C0"/>
<path id="Vector_50" d="M131.389 124.082L105.912 69.2493V44.9546L107.036 43.0156C107.696 41.8911 107.696 40.495 107.036 39.3705C106.435 38.3234 105.349 37.6836 104.186 37.6836H90.8851H77.5841C76.4013 37.6836 75.3349 38.3041 74.7339 39.3705C74.0746 40.495 74.0746 41.8911 74.7339 43.0156L75.8584 44.9546V69.2493L50.381 124.082C48.4614 128.231 48.7717 133.156 51.2147 136.956C53.2894 140.175 56.508 142.036 60.0562 142.036H90.8851H121.714C125.262 142.036 128.5 140.194 130.555 136.956C132.999 133.176 133.309 128.231 131.389 124.082Z" fill="#BEBEBE"/>
<path id="Vector_51" d="M130.471 123.193L104.994 68.3409V44.0462L106.118 42.1073C106.778 40.9827 106.778 39.5867 106.118 38.4427C105.517 37.3957 104.432 36.7559 103.268 36.7559H89.9671H76.6661C75.4834 36.7559 74.417 37.3763 73.8159 38.4427C73.1567 39.5673 73.1567 40.9633 73.8159 42.1073L74.9405 44.0462V68.3409L49.463 123.193C47.5435 127.342 47.8537 132.267 50.2968 136.068C52.3714 139.286 55.59 141.148 59.1382 141.148H89.9671H120.796C124.344 141.148 127.582 139.306 129.638 136.068C132.081 132.267 132.391 127.323 130.471 123.193Z" fill="#BDBDBD"/>
<path id="Vector_52" d="M129.563 122.275L104.086 67.4231V43.1284L105.21 41.1895C105.869 40.0649 105.869 38.6689 105.21 37.5443C104.609 36.4973 103.523 35.8574 102.36 35.8574H89.0589H75.7579C74.5752 35.8574 73.5088 36.4779 72.9077 37.5443C72.2485 38.6689 72.2485 40.0649 72.9077 41.1895L74.0323 43.1284V67.4231L48.5548 122.275C46.6353 126.425 46.9455 131.349 49.3885 135.15C51.4632 138.368 54.6818 140.23 58.23 140.23H89.0589H119.888C123.436 140.23 126.674 138.388 128.729 135.15C131.172 131.349 131.483 126.425 129.563 122.275Z" fill="#BCBCBC"/>
<path id="Vector_53" d="M128.655 121.367L103.177 66.5343V42.2396L104.302 40.3006C104.961 39.1761 104.961 37.78 104.302 36.6361C103.701 35.5891 102.615 34.9492 101.452 34.9492H88.1507H74.8497C73.667 34.9492 72.6006 35.5697 71.9995 36.6361C71.3403 37.7607 71.3403 39.1567 71.9995 40.3006L73.1241 42.2396V66.5343L47.6466 121.367C45.7271 125.516 46.0373 130.441 48.4803 134.242C50.555 137.46 53.7736 139.322 57.3218 139.322H88.1507H118.98C122.528 139.322 125.766 137.48 127.821 134.242C130.264 130.441 130.574 125.516 128.655 121.367Z" fill="#BABABA"/>
<path id="Vector_54" d="M127.737 120.459L102.259 65.6262V41.3315L103.384 39.3926C104.043 38.268 104.043 36.872 103.384 35.7474C102.783 34.7004 101.697 34.0605 100.534 34.0605H87.2328H73.9317C72.749 34.0605 71.6826 34.681 71.0815 35.7474C70.4223 36.872 70.4223 38.268 71.0815 39.3926L72.2061 41.3315V65.6262L46.7286 120.459C44.8091 124.608 45.1193 129.533 47.5624 133.333C49.637 136.552 52.8556 138.413 56.4039 138.413H87.2328H118.062C121.61 138.413 124.828 136.571 126.903 133.333C129.346 129.553 129.656 124.608 127.737 120.459Z" fill="#B9B9B9"/>
<path id="Vector_55" d="M126.829 119.541L101.351 64.7081V40.4134L102.476 38.4745C103.135 37.3499 103.135 35.9539 102.476 34.8099C101.875 33.7629 100.808 33.123 99.6256 33.123H86.3246H73.0235C71.8408 33.123 70.7744 33.7435 70.1733 34.8099C69.5141 35.9345 69.5141 37.3305 70.1733 38.4745L71.2979 40.4134V64.7081L45.8204 119.541C43.9009 123.69 44.2111 128.615 46.6542 132.415C48.7288 135.634 51.9474 137.495 55.4957 137.495H86.3246H117.153C120.702 137.495 123.92 135.653 125.995 132.415C128.438 128.634 128.748 123.69 126.829 119.541Z" fill="#B8B8B8"/>
<path id="Vector_56" d="M125.92 118.633L100.443 63.8001V39.5053L101.568 37.5664C102.227 36.4418 102.227 35.0458 101.568 33.9212C100.967 32.8742 99.9001 32.2344 98.7174 32.2344H85.4163H72.0959C70.9132 32.2344 69.8468 32.8548 69.2457 33.9212C68.5865 35.0458 68.5865 36.4418 69.2457 37.5664L70.3703 39.5053V63.8001L44.9122 118.633C42.9927 122.782 43.3029 127.707 45.746 131.507C47.8206 134.726 51.0392 136.587 54.5875 136.587H85.4163H116.245C119.793 136.587 123.012 134.745 125.087 131.507C127.53 127.726 127.84 122.782 125.92 118.633Z" fill="#B6B6B6"/>
<path id="Vector_57" d="M125.012 117.744L99.5348 62.8918V38.5971L100.659 36.6582C101.319 35.5336 101.319 34.1376 100.659 33.013C100.058 31.966 98.9919 31.3262 97.8092 31.3262H84.5082H71.2071C70.0244 31.3262 68.958 31.9466 68.3569 33.013C67.6977 34.1376 67.6977 35.5336 68.3569 36.6582L69.4815 38.5971V62.8918L44.004 117.744C42.0845 121.893 42.3947 126.818 44.8378 130.618C46.9124 133.837 50.131 135.698 53.6793 135.698H84.5082H115.337C118.885 135.698 122.104 133.856 124.179 130.618C126.622 126.818 126.932 121.893 125.012 117.744Z" fill="#B5B5B5"/>
<path id="Vector_58" d="M124.094 116.826L98.6168 61.9739V37.6986L99.7414 35.7596C100.401 34.6351 100.401 33.239 99.7414 32.0951C99.1404 31.048 98.0739 30.4082 96.8912 30.4082H83.5902H70.2892C69.1064 30.4082 68.04 31.0287 67.4389 32.0951C66.7797 33.2196 66.7797 34.6157 67.4389 35.7596L68.5635 37.6986V61.9933L43.0861 116.826C41.1665 120.975 41.4768 125.9 43.9198 129.701C45.9944 132.919 49.2131 134.78 52.7613 134.78H83.5902H114.419C117.967 134.78 121.205 132.939 123.261 129.701C125.704 125.9 126.014 120.975 124.094 116.826Z" fill="#B3B3B3"/>
<path id="Vector_59" d="M123.186 115.918L97.7086 61.0852V36.7905L98.8332 34.8516C99.4924 33.727 99.4924 32.331 98.8332 31.2064C98.2321 30.1594 97.1657 29.5195 95.983 29.5195H82.682H69.381C68.1982 29.5195 67.1318 30.14 66.5307 31.2064C65.8715 32.331 65.8715 33.727 66.5307 34.8516L67.6553 36.7905V61.0852L42.1779 115.918C40.2583 120.067 40.5685 124.992 43.0116 128.792C45.0862 132.011 48.3049 133.872 51.8531 133.872H82.682H113.511C117.059 133.872 120.297 132.03 122.352 128.792C124.795 125.012 125.106 120.067 123.186 115.918Z" fill="#B2B2B2"/>
</g>
</g>
</g>
</g>
<g id="Group 38446">
<path id="Vector_60" d="M107.924 94.9555L93.0132 62.8275L92.703 62.1683V61.4509V36.3418V35.4499L93.1489 34.6744L93.2458 34.4805H82.6787V94.9555H107.924Z" fill="url(#paint0_linear_29465_4027)"/>
<path id="Vector_61" d="M82.6792 34.4805H72.0927L72.209 34.6744L72.655 35.4499V36.3418V61.4509V62.1683L72.3448 62.8275L57.415 94.9555H82.6792V34.4805Z" fill="#22689B"/>
<path id="Vector_62" d="M118.142 126.118C119.673 123.733 119.867 120.63 118.646 118.013L107.943 94.959H82.6787V128.89H113.508C115.989 128.89 117.463 127.165 118.142 126.118Z" fill="#084F82"/>
<path id="Vector_63" d="M57.4207 94.959L46.7179 118.013C45.4964 120.63 45.6903 123.733 47.222 126.118C47.8812 127.145 49.3742 128.89 51.856 128.89H82.6849V94.959H57.4207Z" fill="#084F82"/>
<path id="Vector_64" d="M55.9212 115.238C55.3783 115.238 54.6997 114.869 54.4089 114.424C53.6139 113.241 53.517 111.593 54.1374 110.255L76.8228 63.0808V38.6504H78.5097V63.3135L67.4966 110.604C66.7986 113.338 64.3168 115.238 61.486 115.238H55.9212Z" fill="white"/>
<path id="Vector_65" d="M51.8531 132.205C49.8948 132.205 48.1304 131.526 46.6762 130.402C46.3465 130.15 46.0557 129.878 45.7649 129.587C45.6291 129.432 45.474 129.296 45.3383 129.141C44.524 128.211 43.8647 127.105 43.3994 125.903C43.2443 125.496 43.1085 125.089 42.9922 124.662C42.4881 122.762 42.4493 120.688 42.9728 118.632C43.1473 117.954 43.38 117.275 43.6902 116.616L69.3228 61.4341V36.3444L67.9655 34.0177C67.2481 32.7962 68.0431 31.1675 69.381 31.1675H82.682V29.5H69.381C68.1982 29.5 67.1318 30.1205 66.5307 31.1869C65.8715 32.3114 65.8715 33.7075 66.5307 34.832L67.6553 36.771V61.0657L42.1779 115.918C40.2583 120.067 40.5685 124.992 43.0116 128.792C45.0862 132.011 48.3049 133.872 51.8531 133.872H82.682V132.205H51.8531Z" fill="#4B98C6"/>
<path id="Vector_66" d="M123.183 115.918L97.7054 61.0852V36.7905L98.83 34.8516C99.4892 33.727 99.4892 32.331 98.83 31.2064C98.2289 30.1594 97.1625 29.5195 95.9797 29.5195H82.6787V31.187H95.9797C96.3093 31.187 96.6002 31.284 96.8522 31.4585C97.1043 31.633 97.2982 31.8656 97.4339 32.1565C97.6472 32.583 97.7054 33.0872 97.5696 33.5719C97.5309 33.727 97.4533 33.9015 97.3758 34.0566L96.6971 35.22L96.0185 36.3833V61.4924L108.835 89.0833L111.588 95.0164L121.651 116.674C122.582 118.652 122.892 120.765 122.698 122.762C122.659 123.208 122.601 123.635 122.504 124.081C122.407 124.507 122.31 124.934 122.175 125.341C121.574 127.203 120.527 128.851 119.15 130.072C118.84 130.344 118.529 130.596 118.18 130.828C118.006 130.945 117.831 131.042 117.657 131.158C117.133 131.468 116.571 131.72 115.989 131.895C115.214 132.147 114.38 132.283 113.508 132.283H82.6787V133.95H113.508C117.056 133.95 120.294 132.108 122.349 128.87C124.792 125.012 125.102 120.067 123.183 115.918Z" fill="#22689B"/>
<path id="Vector_67" d="M111.614 94.959L121.677 116.617L111.614 94.959Z" fill="#1D1E25"/>
<path id="Vector_68" d="M120.158 117.319L109.765 94.963L94.5255 62.137L94.3704 61.8074V61.439V36.3493V35.9033L94.6031 35.5156L95.9603 33.1889C96.0379 33.0531 95.9797 32.898 95.941 32.8398H82.6787V34.5073H93.2652L93.1683 34.6818L92.7223 35.4574V36.3493V61.4584V62.1952L93.0326 62.8544L107.962 94.9824L118.665 118.036C119.887 120.654 119.693 123.756 118.161 126.141C117.502 127.168 116.009 128.914 113.527 128.914H82.6981V130.581H113.527C115.912 130.581 118.122 129.301 119.557 127.052C121.36 124.163 121.612 120.44 120.158 117.319Z" fill="#22689B"/>
<path id="Vector_69" d="M82.6769 32.8398H69.4146C69.3759 32.898 69.3177 33.0531 69.3953 33.1889L70.7525 35.5156L70.9852 35.9033V36.3493V61.4584V61.8268L70.8301 62.1564L55.5901 94.9824L45.1975 117.338C43.7433 120.46 43.976 124.183 45.8179 127.033C47.2528 129.282 49.4631 130.562 51.848 130.562H82.6769V128.894H51.848C49.3662 128.894 47.8926 127.169 47.214 126.121C45.6822 123.737 45.4883 120.634 46.7099 118.017L57.4127 94.963L72.3424 62.835L72.6527 62.1758V61.439V36.3493V35.4574L72.2067 34.6818L72.1098 34.5073H82.6963V32.8398H82.6769Z" fill="#4B98C6"/>
<path id="Vector_70" d="M43.3984 125.907C43.2433 125.5 43.1075 125.093 42.9912 124.666C43.0882 125.093 43.2239 125.5 43.3984 125.907Z" fill="#1D1E25"/>
<path id="Vector_71" d="M46.6759 130.402C46.3463 130.15 46.0555 129.879 45.7646 129.588C46.0361 129.879 46.3463 130.17 46.6759 130.402Z" fill="#1D1E25"/>
<path id="Vector_72" d="M111.614 94.9546L108.86 89.0215L111.614 94.9546Z" fill="#1D1E25"/>
<path id="Vector_73" d="M42.9743 118.631C42.4508 120.667 42.4896 122.761 42.9937 124.661C42.4896 122.761 42.4314 120.667 42.9743 118.631Z" fill="#1D1E25"/>
<path id="Vector_74" d="M97.4003 34.0179C97.4972 33.8628 97.5554 33.7077 97.5942 33.5332C97.5554 33.6883 97.4779 33.8628 97.4003 34.0179Z" fill="#1D1E25"/>
<path id="Vector_75" d="M53.7521 94.9576L69.3217 61.4336L43.6891 116.615L53.7521 94.9576Z" fill="#1D1E25"/>
<path id="Vector_76" d="M121.677 116.617C122.608 118.594 122.918 120.708 122.724 122.705C122.899 120.708 122.589 118.614 121.677 116.617Z" fill="#1D1E25"/>
<path id="Vector_77" d="M43.6943 116.617L53.7574 94.959L43.6943 116.617Z" fill="#1D1E25"/>
<path id="Vector_78" d="M122.53 124.021C122.433 124.448 122.336 124.875 122.2 125.282C122.317 124.875 122.433 124.448 122.53 124.021Z" fill="#1D1E25"/>
<path id="Vector_79" d="M95.9795 31.1699C96.3091 31.1699 96.5999 31.2669 96.852 31.4414C96.6193 31.2669 96.3091 31.1699 95.9795 31.1699Z" fill="white"/>
<path id="Vector_80" d="M97.4596 32.1414C97.3239 31.8699 97.13 31.6179 96.8779 31.4434C97.1106 31.6179 97.3239 31.8505 97.4596 32.1414Z" fill="white"/>
<path id="Vector_81" d="M96.0381 61.456L108.854 89.0275L96.0381 61.456V36.3469L96.7167 35.1836L96.0381 36.3469V61.456Z" fill="white"/>
<path id="Vector_82" d="M117.676 131.102C117.153 131.412 116.59 131.664 116.009 131.838C116.59 131.644 117.133 131.392 117.676 131.102Z" fill="white"/>
<g id="Group_5">
<path id="Vector_83" d="M113.509 132.202C114.381 132.202 115.215 132.067 115.991 131.814C115.215 132.086 114.381 132.202 113.509 132.202Z" fill="white"/>
</g>
<g id="Group_6">
<path id="Vector_84" d="M82.6857 32.8374V31.1699H69.3847C68.0662 31.1699 67.2713 32.7792 67.9693 34.0201L69.3265 36.3468V61.4559L53.757 94.9799L43.694 116.638C43.3837 117.297 43.1511 117.976 42.9766 118.654C42.4531 120.69 42.4918 122.784 42.996 124.684C43.1123 125.111 43.248 125.518 43.4031 125.925C43.8685 127.127 44.5277 128.232 45.342 129.163C45.4778 129.318 45.6135 129.473 45.7686 129.609C46.0594 129.9 46.3697 130.171 46.6799 130.423C48.1341 131.548 49.8985 132.227 51.8568 132.227H82.6857V130.559H51.8568C49.472 130.559 47.2616 129.279 45.8268 127.03C44.0042 124.18 43.7521 120.457 45.2063 117.336L55.599 94.9799L70.8389 62.1539L70.994 61.8243V61.4559V36.3468V35.9009L70.7613 35.5131L69.4041 33.1864C69.3265 33.0507 69.3847 32.8956 69.4235 32.8374H82.6857Z" fill="white"/>
</g>
<g id="Group_7">
<g id="Group_8">
<path id="Vector_85" d="M121.671 116.628L111.608 94.9701L108.854 89.037L96.038 61.4461V36.3565L96.7167 35.1931L97.3953 34.0298C97.4922 33.8747 97.5504 33.7195 97.5892 33.545C97.7249 33.0603 97.6667 32.5562 97.4535 32.1296C97.3177 31.8582 97.1238 31.6061 96.8718 31.4316C96.6197 31.2571 96.3289 31.1602 95.9993 31.1602H82.6982V32.8276H95.9605C95.9993 32.8858 96.0574 33.0409 95.9799 33.1766L94.6226 35.5033L94.39 35.8911V36.3371V61.4461V61.8145L94.5451 62.1442L109.785 94.9701L120.178 117.326C121.632 120.448 121.399 124.17 119.557 127.021C118.122 129.27 115.912 130.549 113.527 130.549H82.6982V132.217H113.527C114.4 132.217 115.233 132.081 116.009 131.829C116.591 131.635 117.153 131.403 117.676 131.092C117.851 130.995 118.025 130.879 118.2 130.763C118.53 130.53 118.859 130.278 119.169 130.007C120.546 128.785 121.593 127.137 122.194 125.276C122.33 124.868 122.446 124.442 122.524 124.015C122.621 123.589 122.679 123.143 122.718 122.697C122.892 120.719 122.582 118.625 121.671 116.628Z" fill="#084F82"/>
</g>
<g id="Group_9">
<path id="Vector_86" d="M108.531 121.615C111.283 121.615 113.514 119.384 113.514 116.631C113.514 113.879 111.283 111.648 108.531 111.648C105.779 111.648 103.548 113.879 103.548 116.631C103.548 119.384 105.779 121.615 108.531 121.615Z" fill="url(#paint1_linear_29465_4027)"/>
<path id="Vector_87" d="M105.25 111.937C108.002 111.937 110.233 109.706 110.233 106.954C110.233 104.202 108.002 101.971 105.25 101.971C102.498 101.971 100.267 104.202 100.267 106.954C100.267 109.706 102.498 111.937 105.25 111.937Z" fill="url(#paint2_linear_29465_4027)"/>
<path id="Vector_88" d="M97.4762 105.814C100.228 105.814 102.459 103.583 102.459 100.831C102.459 98.0786 100.228 95.8477 97.4762 95.8477C94.7241 95.8477 92.4932 98.0786 92.4932 100.831C92.4932 103.583 94.7241 105.814 97.4762 105.814Z" fill="url(#paint3_linear_29465_4027)"/>
<path id="Vector_89" d="M96.0407 115.775C98.7927 115.775 101.024 113.544 101.024 110.792C101.024 108.04 98.7927 105.809 96.0407 105.809C93.2886 105.809 91.0576 108.04 91.0576 110.792C91.0576 113.544 93.2886 115.775 96.0407 115.775Z" fill="url(#paint4_linear_29465_4027)"/>
<path id="Vector_90" d="M99.2535 125.716C102.006 125.716 104.237 123.485 104.237 120.733C104.237 117.981 102.006 115.75 99.2535 115.75C96.5015 115.75 94.2705 117.981 94.2705 120.733C94.2705 123.485 96.5015 125.716 99.2535 125.716Z" fill="url(#paint5_linear_29465_4027)"/>
<path id="Vector_91" d="M89.2926 123.626C92.0447 123.626 94.2756 121.395 94.2756 118.643C94.2756 115.891 92.0447 113.66 89.2926 113.66C86.5405 113.66 84.3096 115.891 84.3096 118.643C84.3096 121.395 86.5405 123.626 89.2926 123.626Z" fill="url(#paint6_linear_29465_4027)"/>
<path id="Vector_92" d="M86.0699 113.831C88.822 113.831 91.053 111.6 91.053 108.848C91.053 106.096 88.822 103.865 86.0699 103.865C83.3179 103.865 81.0869 106.096 81.0869 108.848C81.0869 111.6 83.3179 113.831 86.0699 113.831Z" fill="url(#paint7_linear_29465_4027)"/>
<path id="Vector_93" d="M87.6422 103.87C90.3943 103.87 92.6252 101.639 92.6252 98.8873C92.6252 96.1353 90.3943 93.9043 87.6422 93.9043C84.8902 93.9043 82.6592 96.1353 82.6592 98.8873C82.6592 101.639 84.8902 103.87 87.6422 103.87Z" fill="url(#paint8_linear_29465_4027)"/>
<path id="Vector_94" d="M78.5114 120.755C81.2634 120.755 83.4944 118.524 83.4944 115.772C83.4944 113.02 81.2634 110.789 78.5114 110.789C75.7593 110.789 73.5283 113.02 73.5283 115.772C73.5283 118.524 75.7593 120.755 78.5114 120.755Z" fill="url(#paint9_linear_29465_4027)"/>
</g>
</g>
</g>
</g>
</g>
<defs>
<linearGradient id="paint0_linear_29465_4027" x1="106.054" y1="34.4805" x2="72.0427" y2="46.8979" gradientUnits="userSpaceOnUse">
<stop stop-color="#084F82"/>
<stop offset="0.97402" stop-color="#63A9DC"/>
</linearGradient>
<linearGradient id="paint1_linear_29465_4027" x1="112.776" y1="111.648" x2="104.154" y2="119.189" gradientUnits="userSpaceOnUse">
<stop stop-color="#084F82"/>
<stop offset="0.97402" stop-color="#63A9DC"/>
</linearGradient>
<linearGradient id="paint2_linear_29465_4027" x1="109.494" y1="101.971" x2="100.873" y2="109.511" gradientUnits="userSpaceOnUse">
<stop stop-color="#084F82"/>
<stop offset="0.97402" stop-color="#63A9DC"/>
</linearGradient>
<linearGradient id="paint3_linear_29465_4027" x1="101.721" y1="95.8477" x2="93.0996" y2="103.388" gradientUnits="userSpaceOnUse">
<stop stop-color="#084F82"/>
<stop offset="0.97402" stop-color="#63A9DC"/>
</linearGradient>
<linearGradient id="paint4_linear_29465_4027" x1="100.285" y1="105.809" x2="91.664" y2="113.349" gradientUnits="userSpaceOnUse">
<stop stop-color="#084F82"/>
<stop offset="0.97402" stop-color="#63A9DC"/>
</linearGradient>
<linearGradient id="paint5_linear_29465_4027" x1="103.498" y1="115.75" x2="94.8769" y2="123.29" gradientUnits="userSpaceOnUse">
<stop stop-color="#084F82"/>
<stop offset="0.97402" stop-color="#63A9DC"/>
</linearGradient>
<linearGradient id="paint6_linear_29465_4027" x1="93.5374" y1="113.66" x2="84.916" y2="121.201" gradientUnits="userSpaceOnUse">
<stop stop-color="#084F82"/>
<stop offset="0.97402" stop-color="#63A9DC"/>
</linearGradient>
<linearGradient id="paint7_linear_29465_4027" x1="90.3148" y1="103.865" x2="81.6933" y2="111.406" gradientUnits="userSpaceOnUse">
<stop stop-color="#084F82"/>
<stop offset="0.97402" stop-color="#63A9DC"/>
</linearGradient>
<linearGradient id="paint8_linear_29465_4027" x1="91.887" y1="93.9043" x2="83.2656" y2="101.445" gradientUnits="userSpaceOnUse">
<stop stop-color="#084F82"/>
<stop offset="0.97402" stop-color="#63A9DC"/>
</linearGradient>
<linearGradient id="paint9_linear_29465_4027" x1="82.7562" y1="110.789" x2="74.1347" y2="118.33" gradientUnits="userSpaceOnUse">
<stop stop-color="#084F82"/>
<stop offset="0.97402" stop-color="#63A9DC"/>
</linearGradient>
</defs>
</svg>
