<svg width="58" height="85" viewBox="0 0 58 85" fill="none" xmlns="http://www.w3.org/2000/svg">
<g id="Vector" filter="url(#filter0_d_29314_8450)">
<path d="M27.7687 80H33.6072C34.0249 80.0003 34.4386 79.9186 34.8246 79.7595C35.2106 79.6004 35.5613 79.3671 35.8567 79.0729C36.1521 78.7787 36.3864 78.4294 36.5461 78.045C36.7058 77.6605 36.7879 77.2485 36.7876 76.8324V71.4273C41.4634 70.7366 45.536 69.2772 48.9868 67.0212C54.4354 63.4362 57.2244 58.4968 57.3538 52.203C57.4309 48.2712 56.3338 44.9325 54.0625 42.1869C50.3644 37.8039 44.606 35.0652 36.7876 33.971V23.0226C38.2308 23.7048 39.5718 24.5833 40.7723 25.6331C41.5333 26.2768 42.5013 26.6265 43.4997 26.6183C44.3341 26.6183 45.4897 26.0382 45.4897 26.0382H45.5059L52.0516 21.9521C52.9461 21.3904 53.4014 20.6699 53.4199 19.7974C53.4222 19.4462 53.3463 19.0989 53.1976 18.7805C53.0489 18.462 52.8312 18.1804 52.5601 17.9558C48.4829 13.3318 43.2254 10.4627 36.7876 9.34852V3.17679C36.7882 2.76021 36.7064 2.3476 36.5469 1.9625C36.3874 1.5774 36.1533 1.22735 35.858 0.93236C35.5626 0.637367 35.2119 0.403203 34.8257 0.243227C34.4395 0.0832514 34.0254 0.000604174 33.6072 0H27.7664C26.9233 0.00425962 26.1161 0.340836 25.5215 0.936139C24.9268 1.53144 24.593 2.33704 24.593 3.17679V9.17818C21.7677 9.54074 19.0105 10.3116 16.4085 11.4664C8.54999 15.0253 4.70623 20.3637 4.83567 27.4332C4.85032 30.7709 5.95442 34.0133 7.9814 36.6713C11.396 41.2339 16.9332 44.0991 24.593 45.267V58.9319C21.2801 57.767 18.152 55.5962 15.2089 52.4194C14.913 52.0181 14.5236 51.6942 14.0744 51.4757C13.6251 51.2572 13.1293 51.1505 12.6295 51.1648C12.0401 51.1648 10.8844 51.6713 10.8844 51.6713H10.8659L4.91195 55.1496C3.89496 55.739 3.39802 56.5308 3.41651 57.477C3.4287 58.1065 3.67591 58.7089 4.10991 59.1667C5.66313 61.3152 7.74333 63.3778 10.3505 65.3545C14.5018 68.5545 19.4036 70.6477 24.593 71.4365V76.8324C24.593 77.6717 24.9274 78.4767 25.5228 79.0706C26.1183 79.6645 26.926 79.9988 27.7687 80ZM36.7829 46.7288C39.9402 47.7187 41.5327 49.5419 41.5143 52.2353C41.4942 54.7383 40.3447 56.6782 38.0657 58.0548C37.6537 58.3052 37.2252 58.5275 36.7829 58.7201V46.7288ZM20.7261 27.4678C20.7122 25.5111 21.8463 23.9886 24.1284 22.9006L24.5768 22.7256V32.4425C22.0505 31.4549 20.7492 29.8043 20.733 27.4678H20.7261Z" fill="white"/>
<path d="M33.6075 79.5H33.6072H27.7695C27.0586 79.499 26.3776 79.217 25.8759 78.7166C25.3743 78.2163 25.093 77.5386 25.093 76.8324V71.4365V71.0067L24.6681 70.9421C19.5624 70.1661 14.7399 68.1067 10.6558 64.9585L10.6526 64.9561C8.07598 63.0026 6.03352 60.9741 4.51512 58.8737L4.49564 58.8468L4.47276 58.8227C4.12434 58.4552 3.92619 57.9719 3.91642 57.4673L3.91642 57.4672C3.90228 56.7437 4.26418 56.1029 5.16264 55.5823L5.16416 55.5814L11.0376 52.1501L11.085 52.1293L11.0851 52.1293L11.0851 52.1292L11.0853 52.1292L11.0871 52.1284L11.0954 52.1248L11.13 52.11C11.1605 52.0971 11.2055 52.0784 11.2615 52.0558C11.3738 52.0104 11.529 51.9501 11.7008 51.8901C12.0692 51.7615 12.4305 51.6648 12.6295 51.6648H12.6366L12.6438 51.6646C13.0631 51.6526 13.4789 51.7421 13.8557 51.9254C14.2324 52.1086 14.5586 52.38 14.8065 52.7162L14.8231 52.7387L14.8422 52.7592C17.8278 55.982 21.0216 58.2062 24.4271 59.4036L25.093 59.6377V58.9319V45.267V44.8375L24.6683 44.7728C17.0905 43.6174 11.6929 40.7961 8.38173 36.3717L8.37898 36.3681C6.41788 33.7965 5.34983 30.6597 5.33566 27.431H5.33571L5.33559 27.4241C5.27269 23.9886 6.17326 20.9947 8.03168 18.4265C9.89415 15.8526 12.7403 13.6768 16.6131 11.9226C19.1703 10.7879 21.8799 10.0304 24.6566 9.67411L25.093 9.61811V9.17818V3.17679C25.093 2.46985 25.374 1.79127 25.8752 1.28951C26.3762 0.787963 27.0566 0.503911 27.7677 0.5H33.6068C33.9596 0.500556 34.3087 0.570285 34.6343 0.705163C34.96 0.840087 35.2557 1.03753 35.5046 1.28611C35.7535 1.5347 35.9506 1.82957 36.0849 2.15382C36.2192 2.47808 36.2881 2.82543 36.2876 3.17606V3.17679V9.34852V9.76942L36.7023 9.8412C43.0351 10.9372 48.1879 13.7532 52.1851 18.2865L52.211 18.3159L52.2411 18.3408C52.4553 18.5183 52.6272 18.7407 52.7445 18.992C52.8613 19.2421 52.9212 19.5147 52.92 19.7904C52.9047 20.4571 52.5698 21.0361 51.7864 21.5282C51.7862 21.5284 51.786 21.5285 51.7857 21.5287L45.3273 25.5603L45.2657 25.5912L45.2656 25.5913L45.2655 25.5913L45.2654 25.5914L45.2642 25.592L45.2565 25.5958L45.2231 25.6119C45.1931 25.6262 45.1483 25.6472 45.0917 25.6726C44.978 25.7235 44.8182 25.7914 44.6346 25.8592C44.2524 26.0001 43.8241 26.1183 43.4997 26.1183L43.4956 26.1183C42.6179 26.1255 41.7672 25.8185 41.0982 25.2538C39.8637 24.1749 38.4849 23.2718 37.0012 22.5705L36.2876 22.2332V23.0226V33.971V34.4059L36.7183 34.4662C44.4598 35.5496 50.0857 38.2501 53.6788 42.5076C55.8646 45.1507 56.9289 48.3687 56.8539 52.1933C56.7279 58.3149 54.0291 63.1047 48.7127 66.603C45.3318 68.8132 41.3304 70.2509 36.7145 70.9326L36.2876 70.9957V71.4273V76.8324V76.8328C36.2878 77.1828 36.2188 77.5296 36.0844 77.8531C35.9499 78.1767 35.7527 78.4708 35.5039 78.7187C35.2551 78.9665 34.9595 79.1631 34.6341 79.2972C34.3087 79.4313 33.9598 79.5003 33.6075 79.5ZM36.9325 46.2517L36.2829 46.0481V46.7288V58.7201V59.4833L36.9826 59.1785C37.4454 58.9769 37.894 58.7442 38.3252 58.4822C40.7408 57.0227 41.9927 54.9286 42.0142 52.2393L42.0142 52.2387C42.0242 50.7845 41.5961 49.5343 40.7181 48.5166C39.8479 47.508 38.5676 46.7644 36.9325 46.2517ZM20.2261 27.4713L20.2296 27.9678H20.2552C20.3437 29.0285 20.6967 29.9667 21.3187 30.7677C22.0317 31.6857 23.0728 32.3914 24.3947 32.9081L25.0768 33.1748V32.4425V22.7256V21.9938L24.395 22.2598L23.9466 22.4348L23.9297 22.4414L23.9132 22.4492C21.5172 23.5916 20.2104 25.2608 20.2261 27.4713Z" stroke="#084F82"/>
</g>
<defs>
<filter id="filter0_d_29314_8450" x="0.416016" y="0" width="56.9414" height="85" filterUnits="userSpaceOnUse" color-interpolation-filters="sRGB">
<feFlood flood-opacity="0" result="BackgroundImageFix"/>
<feColorMatrix in="SourceAlpha" type="matrix" values="0 0 0 0 0 0 0 0 0 0 0 0 0 0 0 0 0 0 127 0" result="hardAlpha"/>
<feOffset dx="-3" dy="5"/>
<feComposite in2="hardAlpha" operator="out"/>
<feColorMatrix type="matrix" values="0 0 0 0 0.0457778 0 0 0 0 0.218945 0 0 0 0 0.343333 0 0 0 1 0"/>
<feBlend mode="normal" in2="BackgroundImageFix" result="effect1_dropShadow_29314_8450"/>
<feBlend mode="normal" in="SourceGraphic" in2="effect1_dropShadow_29314_8450" result="shape"/>
</filter>
</defs>
</svg>
