<svg width="100" height="100" viewBox="0 0 100 100" fill="none" xmlns="http://www.w3.org/2000/svg">
<g id="Icon100">
<rect id="Rectangle 5639" width="100" height="100" rx="50" fill="#EAEAEA"/>
<path id="Vector" d="M79.1136 58.6244C79.069 58.0572 79.069 57.4874 79.1136 56.9202V33.7253C79.1136 30.6156 77.8783 27.6332 75.6794 25.4343C73.4805 23.2353 70.4981 22 67.3884 22H29.6391C26.5441 22.0225 23.5836 23.2678 21.4031 25.4643C19.2226 27.6607 17.9989 30.6303 17.999 33.7253V56.9884C17.999 60.0981 19.2344 63.0805 21.4333 65.2794C23.6322 67.4783 26.6146 68.7137 29.7243 68.7137H61.6791C72.2285 69.259 82.4881 78.6154 82.4881 78.6154C79.1136 70.1623 79.1136 58.6244 79.1136 58.6244ZM50.3799 29.7714L51.5388 37.6792L52.6125 29.7714H54.9473L56.1062 37.6621L57.1969 29.7714H59.5317L57.1969 44.5303H55.0836L53.8055 36.418L52.6295 44.5303H50.4992L48.028 29.7714H50.3799ZM38.9784 29.7714H45.2671V32.021H41.1599V36.0431H44.1594V38.2757H41.1599V42.2466H45.2671V44.4791H38.9443L38.9784 29.7714ZM30.3208 44.5303H28.0541V29.7714H30.5594L33.5078 39.6902V29.7714H35.7403V44.5303H33.3373L30.2697 35.0717L30.3208 44.5303ZM66.9453 60.7207H30.5764V57.0566H66.9112L66.9453 60.7207ZM66.9453 52.6937H30.5764V49.2852H66.9112L66.9453 52.6937ZM68.4109 43.4907C68.0299 43.9986 67.49 44.3645 66.8771 44.5303C66.4801 44.6535 66.0656 44.7111 65.65 44.7007C64.9523 44.7347 64.2609 44.5535 63.6696 44.1816C63.0782 43.8097 62.6154 43.2651 62.3437 42.6215C62.0483 41.9602 61.8806 41.2489 61.8495 40.5253L63.9799 40.3719C63.9957 41.0546 64.2352 41.7132 64.6616 42.2466C64.7717 42.3826 64.9126 42.4906 65.0725 42.5617C65.2325 42.6328 65.4071 42.665 65.5819 42.6556C65.8204 42.6467 66.0526 42.5761 66.2557 42.4506C66.4588 42.3251 66.626 42.1492 66.7408 41.9398C66.9074 41.6382 66.9842 41.2952 66.9623 40.9513C66.9292 40.2586 66.63 39.6054 66.1272 39.1278L64.1502 37.2531C63.5394 36.6947 63.0115 36.052 62.5824 35.3444C62.2549 34.7004 62.0855 33.9876 62.0881 33.2652C62.0524 32.6861 62.156 32.1069 62.3903 31.5761C62.6245 31.0453 62.9826 30.5784 63.4345 30.2145C64.0402 29.7832 64.7704 29.5617 65.5137 29.584C66.2309 29.5696 66.9382 29.7524 67.5588 30.1123C68.0025 30.404 68.3659 30.8025 68.6154 31.2712C68.9009 31.7971 69.0694 32.3784 69.1096 32.9754L66.9793 33.3674C66.9476 32.8539 66.7637 32.3614 66.451 31.9528C66.342 31.8322 66.2074 31.7374 66.057 31.6755C65.9066 31.6136 65.7443 31.586 65.5819 31.595C65.3916 31.5852 65.2025 31.6297 65.0365 31.7232C64.8706 31.8168 64.7346 31.9555 64.6445 32.1233C64.4643 32.4578 64.3761 32.8342 64.3889 33.214C64.4243 33.9829 64.7325 34.7139 65.2581 35.2762C65.5595 35.6169 65.8903 35.9305 66.2465 36.2135C66.7578 36.6396 67.0986 36.9463 67.2691 37.1167C67.7683 37.626 68.1981 38.1991 68.5473 38.821C68.6744 39.0412 68.7882 39.2689 68.8881 39.5027C69.0798 39.9511 69.1895 40.4302 69.2119 40.9173C69.2282 41.8442 68.9343 42.75 68.3768 43.4907H68.4109Z" fill="#22689B"/>
</g>
</svg>
