<svg width="84" height="92" viewBox="0 0 84 92" fill="none" xmlns="http://www.w3.org/2000/svg">
<g id="Group 38425">
<path id="Vector" d="M57.7598 19.8843L57.7699 19.8742C57.2845 18.601 56.7088 17.3763 56.0516 16.1906L55.5019 15.2434C55.5012 15.2423 55.5006 15.2413 55.5 15.2402C54.733 13.9633 53.8718 12.7559 52.9277 11.618C52.3679 10.9472 51.4171 10.6984 50.5432 10.9773L50.5431 10.9774L43.8894 13.099L43.6414 13.1781L43.4358 13.0212C41.8777 11.8328 40.1556 10.8423 38.3164 10.0959L38.0742 9.99762L38.019 9.74178L36.5611 2.98196L57.7598 19.8843ZM57.7598 19.8843L57.8701 20.1855M57.7598 19.8843L57.8701 20.1855M57.8701 20.1855C58.1715 21.0095 57.9142 21.9464 57.2311 22.556L57.2288 22.5581M57.8701 20.1855L57.2288 22.5581M57.2288 22.5581L52.0416 27.2455L51.8456 27.4225M57.2288 22.5581L51.8456 27.4225M51.8456 27.4225L51.8791 27.6831M51.8456 27.4225L51.8791 27.6831M51.8791 27.6831C52.0029 28.6454 52.068 29.6302 52.0632 30.6258C52.0583 31.6215 51.9836 32.6068 51.8505 33.5701L51.8145 33.8309M51.8791 27.6831L51.8145 33.8309M51.8145 33.8309L52.0087 34.0065M51.8145 33.8309L52.0087 34.0065M52.0087 34.0065L57.1505 38.656L57.1528 38.6581M52.0087 34.0065L57.1528 38.6581M57.1528 38.6581C57.8298 39.2625 58.0781 40.1971 57.769 41.0232C57.2475 42.4082 56.6206 43.7368 55.8995 45.0206L55.3405 45.9718C55.3399 45.9729 55.3392 45.974 55.3386 45.975C54.5591 47.2578 53.6859 48.4718 52.7305 49.6169L52.7292 49.6185M57.1528 38.6581L52.7292 49.6185M52.7292 49.6185C52.1655 50.2999 51.2153 50.5482 50.3403 50.2744L50.3401 50.2743M52.7292 49.6185L50.3401 50.2743M50.3401 50.2743L43.7068 48.2015L43.4596 48.1242M50.3401 50.2743L43.4596 48.1242M43.4596 48.1242L43.2524 48.2825M43.4596 48.1242L43.2524 48.2825M43.2524 48.2825C41.6827 49.4825 39.9509 50.4856 38.1044 51.2455L37.8612 51.3456M43.2524 48.2825L37.8612 51.3456M37.8612 51.3456L37.8035 51.6018M37.8612 51.3456L37.8035 51.6018M37.8035 51.6018L36.2798 58.3726L37.8035 51.6018ZM34.5072 60.1029L34.5089 60.1026C35.3879 59.9571 36.0772 59.2688 36.2797 58.373L34.5072 60.1029ZM34.5072 60.1029C32.8868 60.3769 31.2198 60.5229 29.5178 60.5292C27.8158 60.5354 26.1501 60.4016 24.5323 60.1395L24.5306 60.1392M34.5072 60.1029L24.5306 60.1392M24.5306 60.1392C23.653 60.0001 22.9704 59.3168 22.7766 58.4225L24.5306 60.1392ZM21.2634 51.4065L21.3185 51.6623L22.7765 58.4221L21.2634 51.4065ZM21.2634 51.4065L21.0211 51.3082M21.2634 51.4065L21.0211 51.3082M21.0211 51.3082C19.1819 50.5618 17.4599 49.5713 15.9017 48.3828L15.6956 48.2256M21.0211 51.3082L15.6956 48.2256M15.6956 48.2256L15.4471 48.3054M15.6956 48.2256L15.4471 48.3054M15.4471 48.3054L8.80616 50.4385C8.80598 50.4386 8.80581 50.4387 8.80563 50.4387C7.93204 50.7174 6.98157 50.4686 6.4218 49.7981C5.47767 48.6601 4.61641 47.4526 3.84945 46.1756C3.84882 46.1746 3.84819 46.1735 3.84756 46.1725L3.29783 45.2253C2.58921 43.9469 1.9753 42.6231 1.46725 41.242C1.16594 40.418 1.42334 39.4813 2.10631 38.8718L2.10864 38.8697M15.4471 48.3054L2.10864 38.8697M2.10864 38.8697L7.29586 34.1823L7.49144 34.0056M2.10864 38.8697L7.49144 34.0056M7.49144 34.0056L7.4584 33.7455M7.49144 34.0056L7.4584 33.7455M7.4584 33.7455C7.33457 32.7706 7.26945 31.7856 7.27429 30.7901C7.27913 29.7944 7.35385 28.8091 7.48698 27.8459L7.52302 27.5851M7.4584 33.7455L7.52302 27.5851M7.52302 27.5851L7.32878 27.4094M7.52302 27.5851L7.32878 27.4094M7.32878 27.4094L2.18697 22.7599L2.18465 22.7578M7.32878 27.4094L2.18465 22.7578M2.18465 22.7578C1.50759 22.1533 1.25929 21.2185 1.56861 20.3923C2.0901 19.0074 2.7169 17.679 3.43797 16.3954L3.99886 15.441C4.77838 14.1581 5.65154 12.9442 6.60693 11.799L6.60828 11.7974M2.18465 22.7578L6.60828 11.7974M6.60828 11.7974C7.17199 11.116 8.12221 10.8677 8.99721 11.1415L8.99739 11.1416M6.60828 11.7974L8.99739 11.1416M8.99739 11.1416L15.6307 13.2145L15.8779 13.2917M8.99739 11.1416L15.8779 13.2917M15.8779 13.2917L16.085 13.1334M15.8779 13.2917L16.085 13.1334M16.085 13.1334C17.6548 11.9334 19.3866 10.9303 21.2331 10.1704L21.4763 10.0703M16.085 13.1334L21.4763 10.0703M21.4763 10.0703L21.5339 9.81408M21.4763 10.0703L21.5339 9.81408M21.5339 9.81408L23.0576 3.04333C23.0577 3.04321 23.0577 3.0431 23.0577 3.04298C23.0577 3.04296 23.0577 3.04294 23.0577 3.04292C23.2603 2.14715 23.9496 1.45881 24.8285 1.31333L24.8285 1.31336M21.5339 9.81408L24.8285 1.31336M24.8285 1.31336L24.8337 1.31244M24.8285 1.31336L24.8337 1.31244M24.8337 1.31244C26.4519 1.02719 28.1177 0.88115 29.8197 0.874909C31.5218 0.868668 33.1874 1.00248 34.8052 1.26462L34.8069 1.26489M24.8337 1.31244L34.8069 1.26489M34.8069 1.26489C35.6845 1.40393 36.3671 2.08724 36.561 2.98156L34.8069 1.26489ZM29.6262 40.687C32.2884 40.6772 34.8473 39.6173 36.7399 37.7393C38.6325 35.8612 39.7037 33.3188 39.7165 30.6711C39.7294 28.0234 38.683 25.4887 36.8085 23.6245C34.9341 21.7603 32.3854 20.7191 29.7232 20.7289C27.061 20.7386 24.5021 21.7986 22.6095 23.6765C20.7169 25.5546 19.6457 28.0971 19.6329 30.7448C19.62 33.3924 20.6664 35.9271 22.5409 37.7914C24.4153 39.6556 26.964 40.6968 29.6262 40.687Z" fill="white" stroke="#084F82"/>
<path id="Vector_2" d="M80.8544 65.4693L80.86 65.4653C80.6603 64.6594 80.4036 63.8725 80.0953 63.1L79.8193 62.4469C79.8188 62.4458 79.8183 62.4447 79.8179 62.4436C79.4304 61.5641 78.975 60.7188 78.4591 59.9088C78.1902 59.4896 77.651 59.2565 77.1022 59.3401L77.102 59.3401L72.5234 60.0352L72.2754 60.0728L72.0969 59.8965C71.1859 58.9962 70.1501 58.2044 69.016 57.5548L68.7871 57.4237L68.7661 57.1609L68.41 52.7131L80.8544 65.4693ZM80.8544 65.4693L80.9275 65.7936M80.8544 65.4693L80.9275 65.7936M80.9275 65.7936C81.0332 66.2619 80.8225 66.7572 80.3731 67.0426L80.3704 67.0443M80.9275 65.7936L80.3704 67.0443M80.3704 67.0443L76.5293 69.5177L76.302 69.6641M80.3704 67.0443L76.302 69.6641M76.302 69.6641L76.3 69.9344M76.302 69.6641L76.3 69.9344M76.3 69.9344C76.2955 70.5512 76.2508 71.1759 76.1598 71.8003C76.0687 72.4247 75.9331 73.0362 75.7613 73.6286L75.686 73.8882M76.3 69.9344L75.686 73.8882M75.686 73.8882L75.862 74.0934M75.686 73.8882L75.862 74.0934M75.862 74.0934L78.8369 77.5608L78.8389 77.5631M75.862 74.0934L78.8389 77.5631M78.8389 77.5631C79.1879 77.9648 79.2485 78.4992 79.014 78.9177L78.8389 77.5631ZM74.9585 83.8465L74.9601 83.8451C75.6861 83.216 76.364 82.5357 76.9867 81.8034C76.9875 81.8025 76.9882 81.8015 76.989 81.8006L77.44 81.2535C78.0245 80.5147 78.551 79.7392 79.0136 78.9185L74.9585 83.8465ZM74.9585 83.8465C74.5835 84.1743 74.0036 84.2407 73.4978 84.0021L73.4976 84.0021M74.9585 83.8465L73.4976 84.0021M73.4976 84.0021L69.3082 82.0284L69.0813 81.9215M73.4976 84.0021L69.0813 81.9215M69.0813 81.9215L68.8599 82.0395M69.0813 81.9215L68.8599 82.0395M68.8599 82.0395C67.7297 82.6421 66.5109 83.1051 65.2385 83.4038L64.9818 83.4641M68.8599 82.0395L64.9818 83.4641M64.9818 83.4641L64.8865 83.71M64.9818 83.4641L64.8865 83.71M64.8865 83.71L63.2751 87.8709L64.8865 83.71ZM62.1063 88.6849L62.108 88.6849C62.6362 88.6796 63.0885 88.351 63.275 87.8713L62.1063 88.6849ZM62.1063 88.6849C61.0212 88.6996 59.9168 88.6288 58.8017 88.4662C57.6866 88.3036 56.6079 88.056 55.5722 87.7321L55.5706 87.7316M62.1063 88.6849L55.5706 87.7316M55.5706 87.7316C55.0658 87.5756 54.7261 87.1313 54.6846 86.6182L54.3285 82.1704L54.3075 81.9075M55.5706 87.7316L54.3075 81.9075M54.3075 81.9075L54.0786 81.7764M54.3075 81.9075L54.0786 81.7764M54.0786 81.7764C52.9445 81.1268 51.9087 80.335 50.9977 79.4347L50.8188 79.2579M54.0786 81.7764L50.8188 79.2579M50.8188 79.2579L50.5702 79.2962M50.8188 79.2579L50.5702 79.2962M50.5702 79.2962L45.9992 79.9999C45.4504 80.0834 44.9112 79.8504 44.6423 79.4312C44.1264 78.6212 43.671 77.7759 43.2836 76.8964L43.0061 76.2399C42.6568 75.3648 42.3737 74.4711 42.1647 73.5522C42.0594 73.0841 42.2701 72.589 42.7193 72.3037L42.722 72.302M50.5702 79.2962L42.722 72.302M42.722 72.302L46.5631 69.8286L46.79 69.6825M42.722 72.302L46.79 69.6825M46.79 69.6825L46.7924 69.4127M46.79 69.6825L46.7924 69.4127M46.7924 69.4127C46.798 68.7877 46.8427 68.1627 46.9337 67.5384C47.0248 66.9141 47.1604 66.3026 47.3322 65.7102L47.4075 65.4505M46.7924 69.4127L47.4075 65.4505M47.4075 65.4505L47.2315 65.2453M47.4075 65.4505L47.2315 65.2453M47.2315 65.2453L44.2566 61.778L44.2566 61.778M47.2315 65.2453L44.2566 61.778M44.2566 61.778L44.2546 61.7757M44.2566 61.778L44.2546 61.7757M44.2546 61.7757C43.9055 61.3739 43.8449 60.8392 44.0797 60.4206C44.5423 59.5998 45.0689 58.8242 45.6535 58.0853L46.1069 57.5353C46.7295 56.803 47.4075 56.1228 48.1334 55.4937L48.135 55.4923M44.2546 61.7757L48.135 55.4923M48.135 55.4923C48.51 55.1645 49.0899 55.0981 49.5957 55.3366L49.5959 55.3367M48.135 55.4923L49.5959 55.3367M49.5959 55.3367L53.7853 57.3104L54.0122 57.4173M49.5959 55.3367L54.0122 57.4173M54.0122 57.4173L54.2336 57.2993M54.0122 57.4173L54.2336 57.2993M54.2336 57.2993C55.3638 56.6967 56.5826 56.2336 57.855 55.935L58.1117 55.8747M54.2336 57.2993L58.1117 55.8747M58.1117 55.8747L58.207 55.6288M58.1117 55.8747L58.207 55.6288M58.207 55.6288L59.8184 51.4679C60.0047 50.988 60.4572 50.6592 60.9855 50.6539L60.9855 50.6539M58.207 55.6288L60.9855 50.6539M60.9855 50.6539L60.9906 50.6538M60.9855 50.6539L60.9906 50.6538M60.9906 50.6538C62.0745 50.6318 63.1778 50.7024 64.2929 50.865C65.408 51.0276 66.4867 51.2752 67.5224 51.5991L67.524 51.5996M60.9906 50.6538L67.524 51.5996M67.524 51.5996C68.0286 51.7556 68.3683 52.1997 68.41 52.7126L67.524 51.5996ZM60.599 76.1959C62.3935 76.4576 64.2181 76.0265 65.6713 74.9911C67.1253 73.9551 68.0886 72.3981 68.342 70.6603C68.5954 68.9225 68.1169 67.1552 67.0193 65.7472C65.9223 64.3399 64.2968 63.4057 62.5023 63.144C60.7079 62.8824 58.8833 63.3134 57.4301 64.3488C55.9761 65.3848 55.0128 66.9418 54.7594 68.6796C54.5059 70.4174 54.9845 72.1847 56.0821 73.5928C57.1791 75.0001 58.8046 75.9342 60.599 76.1959Z" fill="white" stroke="#084F82"/>
</g>
</svg>
