<svg width="42" height="42" viewBox="0 0 42 42" fill="none" xmlns="http://www.w3.org/2000/svg">
<g id="Group 2">
<g id="Ellipse 10" filter="url(#filter0_d_526_51214)">
<circle cx="21" cy="20" r="20" fill="white"/>
</g>
<g id="Group 1">
<path id="Vector" d="M31.0292 24.9182C30.9122 25.3498 30.6843 25.7433 30.368 26.0595C30.0518 26.3757 29.6583 26.6037 29.2267 26.7207C27.6258 27.1428 21.2249 27.1428 21.2249 27.1428C21.2249 27.1428 14.8241 27.1428 13.2232 26.7207C12.3468 26.4855 11.6573 25.7946 11.4207 24.9182C11 23.3187 11 20 11 20C11 20 11 16.6652 11.4207 15.0818C11.6573 14.2053 12.3482 13.5144 13.2232 13.2793C14.8241 12.8571 21.2249 12.8571 21.2249 12.8571C21.2249 12.8571 27.6258 12.8571 29.2267 13.2793C29.6583 13.3963 30.0518 13.6242 30.368 13.9404C30.6843 14.2566 30.9122 14.6501 31.0292 15.0818C31.4499 16.6812 31.4499 20 31.4499 20C31.4499 20 31.4499 23.3187 31.0292 24.9182Z" fill="#ED1C24"/>
<path id="Vector_2" d="M19.1699 16.918L24.4927 19.9826L19.1699 23.0647V16.918Z" fill="white"/>
</g>
</g>
<defs>
<filter id="filter0_d_526_51214" x="0" y="0" width="42" height="42" filterUnits="userSpaceOnUse" color-interpolation-filters="sRGB">
<feFlood flood-opacity="0" result="BackgroundImageFix"/>
<feColorMatrix in="SourceAlpha" type="matrix" values="0 0 0 0 0 0 0 0 0 0 0 0 0 0 0 0 0 0 127 0" result="hardAlpha"/>
<feOffset dy="1"/>
<feGaussianBlur stdDeviation="0.5"/>
<feComposite in2="hardAlpha" operator="out"/>
<feColorMatrix type="matrix" values="0 0 0 0 0 0 0 0 0 0 0 0 0 0 0 0 0 0 0.25 0"/>
<feBlend mode="normal" in2="BackgroundImageFix" result="effect1_dropShadow_526_51214"/>
<feBlend mode="normal" in="SourceGraphic" in2="effect1_dropShadow_526_51214" result="shape"/>
</filter>
</defs>
</svg>
